<?xml version="1.0" encoding="UTF-8" standalone="no"?><!DOCTYPE svg PUBLIC "-//W3C//DTD SVG 1.1//EN" "http://www.w3.org/Graphics/SVG/1.1/DTD/svg11.dtd"><!-- Generated by graphviz version 2.40.1 (20161225.0304)
 --><!-- Title: %0 Pages: 1 --><svg xmlns="http://www.w3.org/2000/svg" xmlns:xlink="http://www.w3.org/1999/xlink" width="278pt" height="482pt" viewBox="0.00 0.00 278.42 482.00">
<g id="graph0" class="graph" transform="scale(1 1) rotate(0) translate(4 478)">
<title>%0</title>
<polygon fill="#ffffff" stroke="transparent" points="-4,4 -4,-478 274.4222,-478 274.4222,4 -4,4"/>
<!-- 1237 -->
<g id="node1" class="node">
<title>1237</title>
<ellipse fill="none" stroke="#000000" cx="104.9611" cy="-18" rx="18" ry="18"/>
<text text-anchor="middle" x="104.9611" y="-13.8" font-family="Times,serif" font-size="14.00" fill="#000000">0</text>
</g>
<!-- 1231 -->
<g id="node2" class="node">
<title>1231</title>
<ellipse fill="none" stroke="#000000" cx="229.9611" cy="-18" rx="18" ry="18"/>
<text text-anchor="middle" x="229.9611" y="-13.8" font-family="Times,serif" font-size="14.00" fill="#000000">1</text>
</g>
<!-- &#45;24648603 -->
<g id="node3" class="node">
<title>-24648603</title>
<polygon fill="none" stroke="#000000" points="189.5,-72.5 189.5,-108.5 270.4222,-108.5 270.4222,-72.5 189.5,-72.5"/>
<text text-anchor="middle" x="229.9611" y="-86.3" font-family="Times,serif" font-size="14.00" fill="#000000">1.0::dice(1)</text>
</g>
<!-- &#45;24648603&#45;&gt;1237 -->
<g id="edge1" class="edge">
<title>-24648603-&gt;1237</title>
<path fill="none" stroke="#000000" stroke-dasharray="5,2" d="M198.7408,-72.3922C177.2661,-59.9369 149.1535,-43.6316 129.3276,-32.1326"/>
<polygon fill="#000000" stroke="#000000" points="130.9973,-29.0549 120.5909,-27.0653 127.4852,-35.1101 130.9973,-29.0549"/>
</g>
<!-- &#45;24648603&#45;&gt;1231 -->
<g id="edge2" class="edge">
<title>-24648603-&gt;1231</title>
<path fill="none" stroke="#000000" d="M229.9611,-72.2052C229.9611,-64.332 229.9611,-54.9471 229.9611,-46.2167"/>
<polygon fill="#000000" stroke="#000000" points="233.4612,-46.0378 229.9611,-36.0378 226.4612,-46.0378 233.4612,-46.0378"/>
</g>
<!-- 1194150936 -->
<g id="node4" class="node">
<title>1194150936</title>
<polygon fill="none" stroke="#000000" points="151.5,-145.5 151.5,-181.5 232.4222,-181.5 232.4222,-145.5 151.5,-145.5"/>
<text text-anchor="middle" x="191.9611" y="-159.3" font-family="Times,serif" font-size="14.00" fill="#000000">0.5::dice(2)</text>
</g>
<!-- 1194150936&#45;&gt;1237 -->
<g id="edge4" class="edge">
<title>1194150936-&gt;1237</title>
<path fill="none" stroke="#000000" d="M181.2856,-145.2225C170.4512,-126.7175 153.1563,-97.3005 137.9611,-72 132.1063,-62.2515 125.5916,-51.559 119.9076,-42.2792"/>
<polygon fill="#000000" stroke="#000000" points="122.769,-40.2503 114.5557,-33.5576 116.8028,-43.9114 122.769,-40.2503"/>
</g>
<!-- 1194150936&#45;&gt;&#45;24648603 -->
<g id="edge3" class="edge">
<title>1194150936-&gt;-24648603</title>
<path fill="none" stroke="#000000" stroke-dasharray="5,2" d="M201.3544,-145.4551C205.739,-137.0319 211.05,-126.8292 215.8997,-117.5128"/>
<polygon fill="#000000" stroke="#000000" points="219.0314,-119.0766 220.5442,-108.5904 212.8222,-115.8445 219.0314,-119.0766"/>
</g>
<!-- &#45;1948223867 -->
<g id="node5" class="node">
<title>-1948223867</title>
<polygon fill="none" stroke="#000000" points="114,-218.5 114,-254.5 201.9222,-254.5 201.9222,-218.5 114,-218.5"/>
<text text-anchor="middle" x="157.9611" y="-232.3" font-family="Times,serif" font-size="14.00" fill="#000000">0.33::dice(3)</text>
</g>
<!-- &#45;1948223867&#45;&gt;1237 -->
<g id="edge6" class="edge">
<title>-1948223867-&gt;1237</title>
<path fill="none" stroke="#000000" d="M152.7749,-218.3825C149.7961,-207.8017 146.0461,-194.1767 142.9611,-182 130.9016,-134.401 118.3042,-78.6431 111.069,-45.9365"/>
<polygon fill="#000000" stroke="#000000" points="114.3995,-44.7859 108.8294,-35.7734 107.5635,-46.2924 114.3995,-44.7859"/>
</g>
<!-- &#45;1948223867&#45;&gt;1194150936 -->
<g id="edge5" class="edge">
<title>-1948223867-&gt;1194150936</title>
<path fill="none" stroke="#000000" stroke-dasharray="5,2" d="M166.3656,-218.4551C170.2479,-210.1196 174.9417,-200.0416 179.2441,-190.8042"/>
<polygon fill="#000000" stroke="#000000" points="182.4861,-192.1331 183.5355,-181.5904 176.1406,-189.1776 182.4861,-192.1331"/>
</g>
<!-- &#45;1993460360 -->
<g id="node6" class="node">
<title>-1993460360</title>
<polygon fill="none" stroke="#000000" points="76,-291.5 76,-327.5 163.9222,-327.5 163.9222,-291.5 76,-291.5"/>
<text text-anchor="middle" x="119.9611" y="-305.3" font-family="Times,serif" font-size="14.00" fill="#000000">0.25::dice(4)</text>
</g>
<!-- &#45;1993460360&#45;&gt;1237 -->
<g id="edge8" class="edge">
<title>-1993460360-&gt;1237</title>
<path fill="none" stroke="#000000" d="M113.5661,-291.0912C110.2762,-280.6479 106.6166,-267.2539 104.9611,-255 94.8335,-180.0378 99.2518,-90.517 102.5472,-46.0066"/>
<polygon fill="#000000" stroke="#000000" points="106.0435,-46.1896 103.3307,-35.948 99.0646,-45.646 106.0435,-46.1896"/>
</g>
<!-- &#45;1993460360&#45;&gt;&#45;1948223867 -->
<g id="edge7" class="edge">
<title>-1993460360-&gt;-1948223867</title>
<path fill="none" stroke="#000000" stroke-dasharray="5,2" d="M129.3544,-291.4551C133.739,-283.0319 139.05,-272.8292 143.8997,-263.5128"/>
<polygon fill="#000000" stroke="#000000" points="147.0314,-265.0766 148.5442,-254.5904 140.8222,-261.8445 147.0314,-265.0766"/>
</g>
<!-- 1516499109 -->
<g id="node7" class="node">
<title>1516499109</title>
<polygon fill="none" stroke="#000000" points="37.5,-364.5 37.5,-400.5 118.4222,-400.5 118.4222,-364.5 37.5,-364.5"/>
<text text-anchor="middle" x="77.9611" y="-378.3" font-family="Times,serif" font-size="14.00" fill="#000000">0.2::dice(5)</text>
</g>
<!-- 1516499109&#45;&gt;1237 -->
<g id="edge10" class="edge">
<title>1516499109-&gt;1237</title>
<path fill="none" stroke="#000000" d="M71.7451,-364.3089C62.9579,-336.928 47.9611,-283.337 47.9611,-236.5 47.9611,-236.5 47.9611,-236.5 47.9611,-163.5 47.9611,-117.9201 72.5112,-69.4992 89.388,-41.5977"/>
<polygon fill="#000000" stroke="#000000" points="92.4545,-43.2944 94.7706,-32.9558 86.5128,-39.5935 92.4545,-43.2944"/>
</g>
<!-- 1516499109&#45;&gt;&#45;1993460360 -->
<g id="edge9" class="edge">
<title>1516499109-&gt;-1993460360</title>
<path fill="none" stroke="#000000" stroke-dasharray="5,2" d="M88.3431,-364.4551C93.1893,-356.0319 99.0593,-345.8292 104.4195,-336.5128"/>
<polygon fill="#000000" stroke="#000000" points="107.5997,-338.0036 109.5529,-327.5904 101.5322,-334.5127 107.5997,-338.0036"/>
</g>
<!-- 1383151320 -->
<g id="node8" class="node">
<title>1383151320</title>
<polygon fill="none" stroke="#000000" points="0,-437.5 0,-473.5 87.9222,-473.5 87.9222,-437.5 0,-437.5"/>
<text text-anchor="middle" x="43.9611" y="-451.3" font-family="Times,serif" font-size="14.00" fill="#000000">0.17::dice(6)</text>
</g>
<!-- 1383151320&#45;&gt;1237 -->
<g id="edge12" class="edge">
<title>1383151320-&gt;1237</title>
<path fill="none" stroke="#000000" d="M36.9163,-437.3781C26.9575,-410.0856 9.9611,-356.6061 9.9611,-309.5 9.9611,-309.5 9.9611,-309.5 9.9611,-163.5 9.9611,-110.5068 54.6902,-61.7324 82.7647,-36.3381"/>
<polygon fill="#000000" stroke="#000000" points="85.326,-38.747 90.5326,-29.5198 80.7082,-33.4861 85.326,-38.747"/>
</g>
<!-- 1383151320&#45;&gt;1516499109 -->
<g id="edge11" class="edge">
<title>1383151320-&gt;1516499109</title>
<path fill="none" stroke="#000000" stroke-dasharray="5,2" d="M52.3656,-437.4551C56.2479,-429.1196 60.9417,-419.0416 65.2441,-409.8042"/>
<polygon fill="#000000" stroke="#000000" points="68.4861,-411.1331 69.5355,-400.5904 62.1406,-408.1776 68.4861,-411.1331"/>
</g>
</g>
</svg>