<?xml version="1.0" encoding="UTF-8" standalone="no"?><!DOCTYPE svg PUBLIC "-//W3C//DTD SVG 1.1//EN" "http://www.w3.org/Graphics/SVG/1.1/DTD/svg11.dtd"><!-- Generated by graphviz version 2.40.1 (20161225.0304)
 --><!-- Title: %0 Pages: 1 --><svg xmlns="http://www.w3.org/2000/svg" xmlns:xlink="http://www.w3.org/1999/xlink" width="134pt" height="260pt" viewBox="0.00 0.00 134.00 260.00">
<g id="graph0" class="graph" transform="scale(1 1) rotate(0) translate(4 256)">
<title>%0</title>
<polygon fill="#ffffff" stroke="transparent" points="-4,4 -4,-256 130,-256 130,4 -4,4"/>
<!-- 0 -->
<g id="node1" class="node">
<title>0</title>
<polygon fill="none" stroke="#000000" points="126,-36 72,-36 72,0 126,0 126,-36"/>
<text text-anchor="middle" x="99" y="-13.8" font-family="Times,serif" font-size="14.00" fill="#000000">0</text>
</g>
<!-- 1 -->
<g id="node2" class="node">
<title>1</title>
<polygon fill="none" stroke="#000000" points="54,-36 0,-36 0,0 54,0 54,-36"/>
<text text-anchor="middle" x="27" y="-13.8" font-family="Times,serif" font-size="14.00" fill="#000000">1</text>
</g>
<!-- X1 -->
<g id="node3" class="node">
<title>X1</title>
<ellipse fill="none" stroke="#000000" cx="54" cy="-234" rx="27" ry="18"/>
<text text-anchor="middle" x="54" y="-229.8" font-family="Times,serif" font-size="14.00" fill="#000000">X1</text>
</g>
<!-- X2 -->
<g id="node4" class="node">
<title>X2</title>
<ellipse fill="none" stroke="#000000" cx="27" cy="-162" rx="27" ry="18"/>
<text text-anchor="middle" x="27" y="-157.8" font-family="Times,serif" font-size="14.00" fill="#000000">X2</text>
</g>
<!-- X1&#45;&gt;X2 -->
<g id="edge1" class="edge">
<title>X1-&gt;X2</title>
<path fill="none" stroke="#000000" d="M47.3258,-216.2022C44.2524,-208.0064 40.5384,-198.1024 37.1305,-189.0145"/>
<polygon fill="#000000" stroke="#000000" points="40.3858,-187.7274 33.5974,-179.593 33.8315,-190.1853 40.3858,-187.7274"/>
</g>
<!-- X3 -->
<g id="node5" class="node">
<title>X3</title>
<ellipse fill="none" stroke="#000000" cx="82" cy="-90" rx="27" ry="18"/>
<text text-anchor="middle" x="82" y="-85.8" font-family="Times,serif" font-size="14.00" fill="#000000">X3</text>
</g>
<!-- X1&#45;&gt;X3 -->
<g id="edge2" class="edge">
<title>X1-&gt;X3</title>
<path fill="none" stroke="#000000" stroke-dasharray="5,2" d="M57.4896,-216.0535C62.2683,-191.4774 70.8971,-147.1008 76.5366,-118.0974"/>
<polygon fill="#000000" stroke="#000000" points="79.9933,-118.6569 78.4664,-108.1727 73.122,-117.3208 79.9933,-118.6569"/>
</g>
<!-- X2&#45;&gt;1 -->
<g id="edge3" class="edge">
<title>X2-&gt;1</title>
<path fill="none" stroke="#000000" d="M27,-143.7623C27,-119.201 27,-75.2474 27,-46.3541"/>
<polygon fill="#000000" stroke="#000000" points="30.5001,-46.0896 27,-36.0896 23.5001,-46.0897 30.5001,-46.0896"/>
</g>
<!-- X2&#45;&gt;X3 -->
<g id="edge4" class="edge">
<title>X2-&gt;X3</title>
<path fill="none" stroke="#000000" stroke-dasharray="5,2" d="M39.4804,-145.6621C46.5124,-136.4564 55.4347,-124.7764 63.2883,-114.4953"/>
<polygon fill="#000000" stroke="#000000" points="66.28,-116.3446 69.569,-106.2733 60.7172,-112.0953 66.28,-116.3446"/>
</g>
<!-- X3&#45;&gt;0 -->
<g id="edge6" class="edge">
<title>X3-&gt;0</title>
<path fill="none" stroke="#000000" stroke-dasharray="5,2" d="M86.2022,-72.2022C88.0679,-64.3005 90.3085,-54.811 92.3899,-45.9959"/>
<polygon fill="#000000" stroke="#000000" points="95.8364,-46.6298 94.728,-36.0931 89.0237,-45.0212 95.8364,-46.6298"/>
</g>
<!-- X3&#45;&gt;1 -->
<g id="edge5" class="edge">
<title>X3-&gt;1</title>
<path fill="none" stroke="#000000" d="M69.5196,-73.6621C62.8342,-64.9102 54.4404,-53.922 46.8806,-44.0255"/>
<polygon fill="#000000" stroke="#000000" points="49.6341,-41.8644 40.7823,-36.0423 44.0714,-46.1137 49.6341,-41.8644"/>
</g>
</g>
</svg>