<?xml version="1.0" encoding="UTF-8" standalone="no"?><!DOCTYPE svg PUBLIC "-//W3C//DTD SVG 1.1//EN" "http://www.w3.org/Graphics/SVG/1.1/DTD/svg11.dtd"><!-- Generated by graphviz version 2.40.1 (20161225.0304)
 --><!-- Title: %0 Pages: 1 --><svg xmlns="http://www.w3.org/2000/svg" xmlns:xlink="http://www.w3.org/1999/xlink" width="566pt" height="260pt" viewBox="0.00 0.00 566.00 260.00">
<g id="graph0" class="graph" transform="scale(1 1) rotate(0) translate(4 256)">
<title>%0</title>
<polygon fill="#ffffff" stroke="transparent" points="-4,4 -4,-256 562,-256 562,4 -4,4"/>
<!-- T0_1 -->
<g id="node1" class="node">
<title>T0_1</title>
<polygon fill="none" stroke="#000000" points="54,-36 0,-36 0,0 54,0 54,-36"/>
<text text-anchor="middle" x="27" y="-13.8" font-family="Times,serif" font-size="14.00" fill="#000000">1</text>
</g>
<!-- T1_1 -->
<g id="node2" class="node">
<title>T1_1</title>
<polygon fill="none" stroke="#000000" points="126,-36 72,-36 72,0 126,0 126,-36"/>
<text text-anchor="middle" x="99" y="-13.8" font-family="Times,serif" font-size="14.00" fill="#000000">0</text>
</g>
<!-- T0_2 -->
<g id="node3" class="node">
<title>T0_2</title>
<polygon fill="none" stroke="#000000" points="198,-36 144,-36 144,0 198,0 198,-36"/>
<text text-anchor="middle" x="171" y="-13.8" font-family="Times,serif" font-size="14.00" fill="#000000">0</text>
</g>
<!-- T1_2 -->
<g id="node4" class="node">
<title>T1_2</title>
<polygon fill="none" stroke="#000000" points="270,-36 216,-36 216,0 270,0 270,-36"/>
<text text-anchor="middle" x="243" y="-13.8" font-family="Times,serif" font-size="14.00" fill="#000000">1</text>
</g>
<!-- T0_3 -->
<g id="node5" class="node">
<title>T0_3</title>
<polygon fill="none" stroke="#000000" points="342,-36 288,-36 288,0 342,0 342,-36"/>
<text text-anchor="middle" x="315" y="-13.8" font-family="Times,serif" font-size="14.00" fill="#000000">0</text>
</g>
<!-- T1_3 -->
<g id="node6" class="node">
<title>T1_3</title>
<polygon fill="none" stroke="#000000" points="414,-36 360,-36 360,0 414,0 414,-36"/>
<text text-anchor="middle" x="387" y="-13.8" font-family="Times,serif" font-size="14.00" fill="#000000">0</text>
</g>
<!-- T0_4 -->
<g id="node7" class="node">
<title>T0_4</title>
<polygon fill="none" stroke="#000000" points="486,-36 432,-36 432,0 486,0 486,-36"/>
<text text-anchor="middle" x="459" y="-13.8" font-family="Times,serif" font-size="14.00" fill="#000000">1</text>
</g>
<!-- T1_4 -->
<g id="node8" class="node">
<title>T1_4</title>
<polygon fill="none" stroke="#000000" points="558,-36 504,-36 504,0 558,0 558,-36"/>
<text text-anchor="middle" x="531" y="-13.8" font-family="Times,serif" font-size="14.00" fill="#000000">1</text>
</g>
<!-- X1 -->
<g id="node9" class="node">
<title>X1</title>
<ellipse fill="none" stroke="#000000" cx="279" cy="-234" rx="27" ry="18"/>
<text text-anchor="middle" x="279" y="-229.8" font-family="Times,serif" font-size="14.00" fill="#000000">X1</text>
</g>
<!-- X2_1 -->
<g id="node10" class="node">
<title>X2_1</title>
<ellipse fill="none" stroke="#000000" cx="207" cy="-162" rx="27" ry="18"/>
<text text-anchor="middle" x="207" y="-157.8" font-family="Times,serif" font-size="14.00" fill="#000000">X2</text>
</g>
<!-- X1&#45;&gt;X2_1 -->
<g id="edge2" class="edge">
<title>X1-&gt;X2_1</title>
<path fill="none" stroke="#000000" stroke-dasharray="5,2" d="M263.7307,-218.7307C253.803,-208.803 240.6847,-195.6847 229.5637,-184.5637"/>
<polygon fill="#000000" stroke="#000000" points="231.7933,-181.8436 222.2473,-177.2473 226.8436,-186.7933 231.7933,-181.8436"/>
</g>
<!-- X2_2 -->
<g id="node11" class="node">
<title>X2_2</title>
<ellipse fill="none" stroke="#000000" cx="351" cy="-162" rx="27" ry="18"/>
<text text-anchor="middle" x="351" y="-157.8" font-family="Times,serif" font-size="14.00" fill="#000000">X2</text>
</g>
<!-- X1&#45;&gt;X2_2 -->
<g id="edge1" class="edge">
<title>X1-&gt;X2_2</title>
<path fill="none" stroke="#000000" d="M294.2693,-218.7307C304.197,-208.803 317.3153,-195.6847 328.4363,-184.5637"/>
<polygon fill="#000000" stroke="#000000" points="331.1564,-186.7933 335.7527,-177.2473 326.2067,-181.8436 331.1564,-186.7933"/>
</g>
<!-- X3_1 -->
<g id="node12" class="node">
<title>X3_1</title>
<ellipse fill="none" stroke="#000000" cx="99" cy="-90" rx="27" ry="18"/>
<text text-anchor="middle" x="99" y="-85.8" font-family="Times,serif" font-size="14.00" fill="#000000">X3</text>
</g>
<!-- X2_1&#45;&gt;X3_1 -->
<g id="edge4" class="edge">
<title>X2_1-&gt;X3_1</title>
<path fill="none" stroke="#000000" stroke-dasharray="5,2" d="M187.6918,-149.1278C170.6445,-137.763 145.5981,-121.0654 126.4656,-108.3104"/>
<polygon fill="#000000" stroke="#000000" points="128.4031,-105.3956 118.1411,-102.7607 124.5201,-111.2199 128.4031,-105.3956"/>
</g>
<!-- X3_2 -->
<g id="node13" class="node">
<title>X3_2</title>
<ellipse fill="none" stroke="#000000" cx="207" cy="-90" rx="27" ry="18"/>
<text text-anchor="middle" x="207" y="-85.8" font-family="Times,serif" font-size="14.00" fill="#000000">X3</text>
</g>
<!-- X2_1&#45;&gt;X3_2 -->
<g id="edge3" class="edge">
<title>X2_1-&gt;X3_2</title>
<path fill="none" stroke="#000000" d="M207,-143.8314C207,-136.131 207,-126.9743 207,-118.4166"/>
<polygon fill="#000000" stroke="#000000" points="210.5001,-118.4132 207,-108.4133 203.5001,-118.4133 210.5001,-118.4132"/>
</g>
<!-- X3_3 -->
<g id="node14" class="node">
<title>X3_3</title>
<ellipse fill="none" stroke="#000000" cx="351" cy="-90" rx="27" ry="18"/>
<text text-anchor="middle" x="351" y="-85.8" font-family="Times,serif" font-size="14.00" fill="#000000">X3</text>
</g>
<!-- X2_2&#45;&gt;X3_3 -->
<g id="edge6" class="edge">
<title>X2_2-&gt;X3_3</title>
<path fill="none" stroke="#000000" stroke-dasharray="5,2" d="M351,-143.8314C351,-136.131 351,-126.9743 351,-118.4166"/>
<polygon fill="#000000" stroke="#000000" points="354.5001,-118.4132 351,-108.4133 347.5001,-118.4133 354.5001,-118.4132"/>
</g>
<!-- X3_4 -->
<g id="node15" class="node">
<title>X3_4</title>
<ellipse fill="none" stroke="#000000" cx="459" cy="-90" rx="27" ry="18"/>
<text text-anchor="middle" x="459" y="-85.8" font-family="Times,serif" font-size="14.00" fill="#000000">X3</text>
</g>
<!-- X2_2&#45;&gt;X3_4 -->
<g id="edge5" class="edge">
<title>X2_2-&gt;X3_4</title>
<path fill="none" stroke="#000000" d="M370.3082,-149.1278C387.3555,-137.763 412.4019,-121.0654 431.5344,-108.3104"/>
<polygon fill="#000000" stroke="#000000" points="433.4799,-111.2199 439.8589,-102.7607 429.5969,-105.3956 433.4799,-111.2199"/>
</g>
<!-- X3_1&#45;&gt;T0_1 -->
<g id="edge8" class="edge">
<title>X3_1-&gt;T0_1</title>
<path fill="none" stroke="#000000" stroke-dasharray="5,2" d="M83.7307,-74.7307C74.6292,-65.6292 62.8461,-53.8461 52.3788,-43.3788"/>
<polygon fill="#000000" stroke="#000000" points="54.5927,-40.6429 45.0467,-36.0467 49.6429,-45.5927 54.5927,-40.6429"/>
</g>
<!-- X3_1&#45;&gt;T1_1 -->
<g id="edge7" class="edge">
<title>X3_1-&gt;T1_1</title>
<path fill="none" stroke="#000000" d="M99,-71.8314C99,-64.131 99,-54.9743 99,-46.4166"/>
<polygon fill="#000000" stroke="#000000" points="102.5001,-46.4132 99,-36.4133 95.5001,-46.4133 102.5001,-46.4132"/>
</g>
<!-- X3_2&#45;&gt;T0_2 -->
<g id="edge10" class="edge">
<title>X3_2-&gt;T0_2</title>
<path fill="none" stroke="#000000" stroke-dasharray="5,2" d="M198.2854,-72.5708C194.1772,-64.3544 189.1804,-54.3608 184.5911,-45.1821"/>
<polygon fill="#000000" stroke="#000000" points="187.613,-43.3996 180.0103,-36.0206 181.352,-46.5301 187.613,-43.3996"/>
</g>
<!-- X3_2&#45;&gt;T1_2 -->
<g id="edge9" class="edge">
<title>X3_2-&gt;T1_2</title>
<path fill="none" stroke="#000000" d="M215.7146,-72.5708C219.8228,-64.3544 224.8196,-54.3608 229.4089,-45.1821"/>
<polygon fill="#000000" stroke="#000000" points="232.648,-46.5301 233.9897,-36.0206 226.387,-43.3996 232.648,-46.5301"/>
</g>
<!-- X3_3&#45;&gt;T0_3 -->
<g id="edge12" class="edge">
<title>X3_3-&gt;T0_3</title>
<path fill="none" stroke="#000000" stroke-dasharray="5,2" d="M342.2854,-72.5708C338.1772,-64.3544 333.1804,-54.3608 328.5911,-45.1821"/>
<polygon fill="#000000" stroke="#000000" points="331.613,-43.3996 324.0103,-36.0206 325.352,-46.5301 331.613,-43.3996"/>
</g>
<!-- X3_3&#45;&gt;T1_3 -->
<g id="edge11" class="edge">
<title>X3_3-&gt;T1_3</title>
<path fill="none" stroke="#000000" d="M359.7146,-72.5708C363.8228,-64.3544 368.8196,-54.3608 373.4089,-45.1821"/>
<polygon fill="#000000" stroke="#000000" points="376.648,-46.5301 377.9897,-36.0206 370.387,-43.3996 376.648,-46.5301"/>
</g>
<!-- X3_4&#45;&gt;T0_4 -->
<g id="edge14" class="edge">
<title>X3_4-&gt;T0_4</title>
<path fill="none" stroke="#000000" stroke-dasharray="5,2" d="M459,-71.8314C459,-64.131 459,-54.9743 459,-46.4166"/>
<polygon fill="#000000" stroke="#000000" points="462.5001,-46.4132 459,-36.4133 455.5001,-46.4133 462.5001,-46.4132"/>
</g>
<!-- X3_4&#45;&gt;T1_4 -->
<g id="edge13" class="edge">
<title>X3_4-&gt;T1_4</title>
<path fill="none" stroke="#000000" d="M474.2693,-74.7307C483.3708,-65.6292 495.1539,-53.8461 505.6212,-43.3788"/>
<polygon fill="#000000" stroke="#000000" points="508.3571,-45.5927 512.9533,-36.0467 503.4073,-40.6429 508.3571,-45.5927"/>
</g>
</g>
</svg>