<svg xmlns="http://www.w3.org/2000/svg" xmlns:xlink="http://www.w3.org/1999/xlink" xmlns:lucid="lucid" width="877" height="531"><g transform="translate(-882 -719)" lucid:page-tab-id="R3By~.u96Z7c"><path d="M1220 802c0-3.3 2.7-6 6-6h228c3.3 0 6 2.7 6 6v90c0 3.3-2.7 6-6 6h-228c-3.3 0-6-2.7-6-6z" stroke="#5e5e5e" stroke-width="3" fill="#fff"/><use xlink:href="#a" transform="matrix(1,0,0,1,1228,804) translate(53.574999999999996 25)"/><use xlink:href="#b" transform="matrix(1,0,0,1,1228,804) translate(10.675000000000011 46.6)"/><use xlink:href="#c" transform="matrix(1,0,0,1,1228,804) translate(65.1 68.2)"/><path d="M1220 986.5c0-3.3 2.7-6 6-6h228c3.3 0 6 2.7 6 6v74c0 3.3-2.7 6-6 6h-228c-3.3 0-6-2.7-6-6z" stroke="#5e5e5e" stroke-width="3" fill="#e5e5e5"/><use xlink:href="#d" transform="matrix(1,0,0,1,1228,988.5) translate(84.9135802469136 17.22222222222222)"/><use xlink:href="#e" transform="matrix(1,0,0,1,1228,988.5) translate(19.382716049382765 38.55555555555556)"/><use xlink:href="#f" transform="matrix(1,0,0,1,1228,988.5) translate(84.41975308641975 59.888888888888886)"/><path d="M900 810c0-3.3 2.7-6 6-6h228c3.3 0 6 2.7 6 6v74c0 3.3-2.7 6-6 6H906c-3.3 0-6-2.7-6-6z" stroke="#5e5e5e" stroke-width="3" fill="#e5e5e5"/><use xlink:href="#g" transform="matrix(1,0,0,1,908,812) translate(76.46913580246914 17.22222222222222)"/><use xlink:href="#e" transform="matrix(1,0,0,1,908,812) translate(19.382716049382765 38.55555555555556)"/><use xlink:href="#f" transform="matrix(1,0,0,1,908,812) translate(84.41975308641975 59.888888888888886)"/><path d="M1021 801.5h-2v-4.63h2zm320-8.82h-2v-3.9h2zm-320-5.05h-2v-9.25h2zm320-6.62h-2v-7.77h2zm-320-11.88h-2v-9.25h2zm320-3.67h-2v-7.78h2zM1030.05 741h-3.92l-2.64.7-1.8 1.8-.7 2.63v4.5h-2v-4.76l.92-3.42 2.53-2.53 3.42-.92h4.18zm307.5-1.08l2.53 2.53.92 3.42v4.02h-2v-3.77l-.7-2.64-1.8-1.8-2.63-.7h-3.92v-2h4.18zm-291.3 1.08h-8.1v-2h8.1zm16.22 0h-8.1v-2h8.1zm16.2 0h-8.1v-2h8.1zm16.22 0h-8.1v-2h8.1zm16.2 0h-8.1v-2h8.1zm16.22 0h-8.1v-2h8.1zm113.47 0h-8.12v-2h8.1zm16.2 0h-8.1v-2h8.1zm16.2 0h-8.1v-2h8.1zm16.22 0h-8.1v-2h8.1zm16.2 0h-8.1v-2h8.1zm16.22 0h-8.1v-2h8.1zm-97.26 0h-7.67v-2h7.68z" fill="#5e5e5e"/><path d="M1021 802.5h-2v-1.03h2zM1351.04 775.83L1340 794.5l-11.04-18.67 1.72-1.02 9.32 15.77 9.32-15.76z" fill="#5e5e5e"/><use xlink:href="#h" transform="matrix(1,0,0,1,1135.0864197530864,729.3333333333334) translate(0 14.222222222222223)"/><path d="M1340 978v-4.5m0-9v-9m0-9v-9m0-9.02v-4.5" stroke="#5e5e5e" stroke-width="2" fill="none"/><path d="M1341 979h-2v-1.03h2z" fill="#5e5e5e"/><path d="M1340 901.46l12.73 21.52h-25.46z" stroke="#5e5e5e" stroke-width="2" fill="#fff"/><path d="M1142.5 847h4.3m8.58 0h8.6m8.57 0h8.6m8.57 0h4.3" stroke="#5e5e5e" stroke-width="2" fill="none"/><path d="M1142.53 848h-1.03v-2h1.03z" fill="#5e5e5e"/><path d="M1216.54 847l-21.52 12.73v-25.46z" stroke="#5e5e5e" stroke-width="2" fill="#fff"/><path d="M1360 1160.5c0-3.3 2.7-6 6-6h228c3.3 0 6 2.7 6 6v68c0 3.3-2.7 6-6 6h-228c-3.3 0-6-2.7-6-6z" stroke="#5e5e5e" stroke-width="3" fill="#e5e5e5"/><use xlink:href="#d" transform="matrix(1,0,0,1,1368,1162.5) translate(84.9135802469136 14.222222222222221)"/><use xlink:href="#e" transform="matrix(1,0,0,1,1368,1162.5) translate(19.382716049382765 35.55555555555556)"/><use xlink:href="#i" transform="matrix(1,0,0,1,1368,1162.5) translate(78.54320987654322 56.888888888888886)"/><path d="M1080 1160.5c0-3.3 2.7-6 6-6h228c3.3 0 6 2.7 6 6v68c0 3.3-2.7 6-6 6h-228c-3.3 0-6-2.7-6-6z" stroke="#5e5e5e" stroke-width="3" fill="#e5e5e5"/><use xlink:href="#d" transform="matrix(1,0,0,1,1088,1162.5) translate(84.9135802469136 14.222222222222221)"/><use xlink:href="#e" transform="matrix(1,0,0,1,1088,1162.5) translate(19.382716049382765 35.55555555555556)"/><use xlink:href="#j" transform="matrix(1,0,0,1,1088,1162.5) translate(80.14814814814815 56.888888888888886)"/><path d="M1201 1151.18h-2v-4.33h2zm0-13h-2v-8.67h2zm9.03-26.68h-3.9l-2.64.7-1.8 1.8-.7 2.63v4.2h-2v-4.46l.92-3.42 2.53-2.53 3.42-.92h4.16zm32.25 0h-8.06v-2h8.06zm-16.12 0h-8.07v-2h8.06zm51.34-20.3h-2v-8.9h2zm0-17.76h-2V1069h2z" fill="#5e5e5e"/><path d="M1277.5 1069.03h-2V1068h2zM1211.04 1134.33L1200 1153l-11.04-18.67 1.72-1.02 9.32 15.77 9.32-15.76z" fill="#5e5e5e"/><use xlink:href="#k" transform="matrix(1,0,0,1,1247.2147223066247,1099.8333333333333) translate(0 14.222222222222223)"/><path d="M1481 1151.18h-2v-4.33h2zm0-13h-2v-8.67h2zm-3.45-27.76l2.53 2.53.92 3.42v4.47h-2v-4.2l-.7-2.65-1.8-1.8-2.63-.7h-3.9v-2h4.16zm-31.77 1.08h-8.06v-2h8.06zm16.13 0h-8.06v-2h8.07zm-57.4-20.3h-2v-8.9h2zm0-17.76h-2V1069h2z" fill="#5e5e5e"/><path d="M1404.5 1069.03h-2V1068h2zM1491.04 1134.33L1480 1153l-11.04-18.67 1.72-1.02 9.32 15.77 9.32-15.76z" fill="#5e5e5e"/><use xlink:href="#k" transform="matrix(1,0,0,1,1381.8832815504686,1099.8333333333333) translate(0 14.222222222222223)"/><path d="M1500 986.5c0-3.3 2.7-6 6-6h228c3.3 0 6 2.7 6 6v74c0 3.3-2.7 6-6 6h-228c-3.3 0-6-2.7-6-6z" fill="#e5e5e5"/><path d="M1523.1 980.5h11.4m11.4 0h11.4m11.4 0h11.4m11.4 0h11.4m11.4 0h11.4m11.4 0h11.4m11.4 0h11.4m11.4 0h11.4m11.4 0h11.4m11.4 0h5.7l3.03.82 2.15 2.15.82 3.03v6.17m0 12.33v12.33m0 12.34V1042m0 12.33v6.17l-.82 3.03-2.15 2.15-3.03.82h-5.7m-11.4 0h-11.4m-11.4 0h-11.4m-11.4 0h-11.4m-11.4 0h-11.4m-11.4 0h-11.4m-11.4 0h-11.4m-11.4 0h-11.4m-11.4 0h-11.4m-11.4 0h-11.4m-11.4 0h-5.7l-3.03-.82-2.15-2.15-.82-3.03v-6.17m0-12.33v-12.33m0-12.34V1005m0-12.33v-6.17l.82-3.03 2.15-2.15 3.03-.82h5.7" stroke="#5e5e5e" stroke-width="3" fill="none"/><use xlink:href="#l" transform="matrix(1,0,0,1,1508,988.5) translate(95.7283950617284 17.22222222222222)"/><use xlink:href="#e" transform="matrix(1,0,0,1,1508,988.5) translate(19.382716049382765 38.55555555555556)"/><use xlink:href="#f" transform="matrix(1,0,0,1,1508,988.5) translate(84.41975308641975 59.888888888888886)"/><path d="M940 986.5c0-3.3 2.7-6 6-6h228c3.3 0 6 2.7 6 6v74c0 3.3-2.7 6-6 6H946c-3.3 0-6-2.7-6-6z" fill="#e5e5e5"/><path d="M963.1 980.5h11.4m11.4 0h11.4m11.4 0h11.4m11.4 0h11.4m11.4 0h11.4m11.4 0h11.4m11.4 0h11.4m11.4 0h11.4m11.4 0h11.4m11.4 0h5.7l3.03.82 2.15 2.15.82 3.03v6.17m0 12.33v12.33m0 12.34V1042m0 12.33v6.17l-.82 3.03-2.15 2.15-3.03.82h-5.7m-11.4 0h-11.4m-11.4 0h-11.4m-11.4 0h-11.4m-11.4 0h-11.4m-11.4 0h-11.4m-11.4 0h-11.4m-11.4 0h-11.4m-11.4 0h-11.4m-11.4 0h-11.4m-11.4 0H946l-3.03-.82-2.15-2.15-.82-3.03v-6.17m0-12.33v-12.33m0-12.34V1005m0-12.33v-6.17l.82-3.03 2.15-2.15 3.03-.82h5.7" stroke="#5e5e5e" stroke-width="3" fill="none"/><g><use xlink:href="#m" transform="matrix(1,0,0,1,948,988.5) translate(103.11111111111111 17.22222222222222)"/><use xlink:href="#e" transform="matrix(1,0,0,1,948,988.5) translate(19.382716049382765 38.55555555555556)"/><use xlink:href="#f" transform="matrix(1,0,0,1,948,988.5) translate(84.41975308641975 59.888888888888886)"/></g><path d="M1620 978v-4.1m0-8.18v-8.2m0-8.18v-4.1l-.82-3.02-2.15-2.15-3.03-.82h-3.94m-7.88 0h-7.9m-7.87 0h-7.87m-7.9 0h-7.87m-7.88 0H1547m-7.9 0h-7.87m-7.88 0h-7.9m-7.87 0h-7.88m-7.9 0h-7.87m-7.88 0h-7.88m-7.9 0h-7.87m-7.88 0h-7.9m-7.87 0h-7.88m-7.88 0h-3.96l-3.02-.82-2.16-2.15-.82-3.03v-9.27" stroke="#5e5e5e" stroke-width="2" fill="none"/><path d="M1621 979h-2v-1.03h2z" fill="#5e5e5e"/><path d="M1403.04 901.46l12.73 21.52h-25.45z" stroke="#5e5e5e" stroke-width="2" fill="#fff"/><path d="M1060 978v-4.1m0-8.18v-8.2m0-8.18v-4.1l.82-3.02 2.15-2.15 3.03-.82h4.04m8.08 0h8.08m8.08 0h8.08m8.08 0h8.08m8.08 0h8.08m8.08 0h8.1m8.07 0h8.08m8.1 0h8.07m8.08 0h8.08m8.08 0h8.1m8.07 0h8.08m8.08 0h8.08m8.1 0h8.07m8.08 0h4.04l3.02-.82 2.15-2.15.82-3.03v-9.27" stroke="#5e5e5e" stroke-width="2" fill="none"/><path d="M1061 979h-2v-1.03h2z" fill="#5e5e5e"/><path d="M1282.1 901.46l12.72 21.52h-25.45z" stroke="#5e5e5e" stroke-width="2" fill="#fff"/><defs><path d="M15-91v-56l181-69v40L49-119l147 57v40" id="n"/><path d="M25-224v-37h50v37H25zM25 0v-190h50V0H25" id="o"/><path d="M135-194c87-1 58 113 63 194h-50c-7-57 23-157-34-157-59 0-34 97-39 157H25l-1-190h47c2 12-1 28 3 38 12-26 28-41 61-42" id="p"/><path d="M115-3C79 11 28 4 28-45v-112H4v-33h27l15-45h31v45h36v33H77v99c-1 23 16 31 38 25v30" id="q"/><path d="M185-48c-13 30-37 53-82 52C43 2 14-33 14-96s30-98 90-98c62 0 83 45 84 108H66c0 31 8 55 39 56 18 0 30-7 34-22zm-45-69c5-46-57-63-70-21-2 6-4 13-4 21h74" id="r"/><path d="M135-150c-39-12-60 13-60 57V0H25l-1-190h47c2 13-1 29 3 40 6-28 27-53 61-41v41" id="s"/><path d="M121-226c-27-7-43 5-38 36h38v33H83V0H34v-157H6v-33h28c-9-59 32-81 87-68v32" id="t"/><path d="M133-34C117-15 103 5 69 4 32 3 11-16 11-54c-1-60 55-63 116-61 1-26-3-47-28-47-18 1-26 9-28 27l-52-2c7-38 36-58 82-57s74 22 75 68l1 82c-1 14 12 18 25 15v27c-30 8-71 5-69-32zm-48 3c29 0 43-24 42-57-32 0-66-3-65 30 0 17 8 27 23 27" id="u"/><path d="M190-63c-7 42-38 67-86 67-59 0-84-38-90-98-12-110 154-137 174-36l-49 2c-2-19-15-32-35-32-30 0-35 28-38 64-6 74 65 87 74 30" id="v"/><path d="M15-22v-40l146-57-146-57v-40l181 69v56" id="w"/><g id="a"><use transform="matrix(0.05,0,0,0.05,0,0)" xlink:href="#n"/><use transform="matrix(0.05,0,0,0.05,10.5,0)" xlink:href="#n"/><use transform="matrix(0.05,0,0,0.05,21,0)" xlink:href="#o"/><use transform="matrix(0.05,0,0,0.05,26,0)" xlink:href="#p"/><use transform="matrix(0.05,0,0,0.05,36.95,0)" xlink:href="#q"/><use transform="matrix(0.05,0,0,0.05,42.900000000000006,0)" xlink:href="#r"/><use transform="matrix(0.05,0,0,0.05,52.900000000000006,0)" xlink:href="#s"/><use transform="matrix(0.05,0,0,0.05,59.900000000000006,0)" xlink:href="#t"/><use transform="matrix(0.05,0,0,0.05,65.85000000000001,0)" xlink:href="#u"/><use transform="matrix(0.05,0,0,0.05,75.85000000000001,0)" xlink:href="#v"/><use transform="matrix(0.05,0,0,0.05,85.85000000000001,0)" xlink:href="#r"/><use transform="matrix(0.05,0,0,0.05,95.85000000000001,0)" xlink:href="#w"/><use transform="matrix(0.05,0,0,0.05,106.35000000000001,0)" xlink:href="#w"/></g><path d="M182-130c37 4 62 22 62 59C244 23 116-4 24 0v-248c84 5 203-23 205 63 0 31-19 50-47 55zM76-148c40-3 101 13 101-30 0-44-60-28-101-31v61zm0 110c48-3 116 14 116-37 0-48-69-32-116-35v72" id="x"/><path d="M123 10C108 53 80 86 19 72V37c35 8 53-11 59-39L3-190h52l48 148c12-52 28-100 44-148h51" id="y"/><path d="M24-248c120-7 223 5 221 122C244-46 201 0 124 0H24v-248zM76-40c74 7 117-18 117-86 0-67-45-88-117-82v168" id="z"/><path d="M137-138c1-29-70-34-71-4 15 46 118 7 119 86 1 83-164 76-172 9l43-7c4 19 20 25 44 25 33 8 57-30 24-41C81-84 22-81 20-136c-2-80 154-74 161-7" id="A"/><path d="M110-194c64 0 96 36 96 99 0 64-35 99-97 99-61 0-95-36-95-99 0-62 34-99 96-99zm-1 164c35 0 45-28 45-65 0-40-10-65-43-65-34 0-45 26-45 65 0 36 10 65 43 65" id="B"/><path d="M195-6C206 82 75 100 31 46c-4-6-6-13-8-21l49-6c3 16 16 24 34 25 40 0 42-37 40-79-11 22-30 35-61 35-53 0-70-43-70-97 0-56 18-96 73-97 30 0 46 14 59 34l2-30h47zm-90-29c32 0 41-27 41-63 0-35-9-62-40-62-32 0-39 29-40 63 0 36 9 62 39 62" id="C"/><path d="M220-157c-53 9-28 100-34 157h-49v-107c1-27-5-49-29-50C55-147 81-57 75 0H25l-1-190h47c2 12-1 28 3 38 10-53 101-56 108 0 13-22 24-43 59-42 82 1 51 116 57 194h-49v-107c-1-25-5-48-29-50" id="D"/><g id="b"><use transform="matrix(0.05,0,0,0.05,0,0)" xlink:href="#x"/><use transform="matrix(0.05,0,0,0.05,12.950000000000001,0)" xlink:href="#o"/><use transform="matrix(0.05,0,0,0.05,17.950000000000003,0)" xlink:href="#p"/><use transform="matrix(0.05,0,0,0.05,28.900000000000006,0)" xlink:href="#u"/><use transform="matrix(0.05,0,0,0.05,38.900000000000006,0)" xlink:href="#s"/><use transform="matrix(0.05,0,0,0.05,45.900000000000006,0)" xlink:href="#y"/><use transform="matrix(0.05,0,0,0.05,55.900000000000006,0)" xlink:href="#z"/><use transform="matrix(0.05,0,0,0.05,68.85000000000001,0)" xlink:href="#r"/><use transform="matrix(0.05,0,0,0.05,78.85000000000001,0)" xlink:href="#v"/><use transform="matrix(0.05,0,0,0.05,88.85000000000001,0)" xlink:href="#o"/><use transform="matrix(0.05,0,0,0.05,93.85000000000001,0)" xlink:href="#A"/><use transform="matrix(0.05,0,0,0.05,103.85000000000001,0)" xlink:href="#o"/><use transform="matrix(0.05,0,0,0.05,108.85000000000001,0)" xlink:href="#B"/><use transform="matrix(0.05,0,0,0.05,119.80000000000001,0)" xlink:href="#p"/><use transform="matrix(0.05,0,0,0.05,130.75,0)" xlink:href="#z"/><use transform="matrix(0.05,0,0,0.05,143.7,0)" xlink:href="#o"/><use transform="matrix(0.05,0,0,0.05,148.7,0)" xlink:href="#u"/><use transform="matrix(0.05,0,0,0.05,158.7,0)" xlink:href="#C"/><use transform="matrix(0.05,0,0,0.05,169.64999999999998,0)" xlink:href="#s"/><use transform="matrix(0.05,0,0,0.05,176.64999999999998,0)" xlink:href="#u"/><use transform="matrix(0.05,0,0,0.05,186.64999999999998,0)" xlink:href="#D"/></g><path d="M85 4C-2 5 27-109 22-190h50c7 57-23 150 33 157 60-5 35-97 40-157h50l1 190h-47c-2-12 1-28-3-38-12 25-28 42-61 42" id="E"/><path d="M25 0v-261h50V0H25" id="F"/><path d="M88-194c31-1 46 15 58 34l-1-101h50l1 261h-48c-2-10 0-23-3-31C134-8 116 4 84 4 32 4 16-41 15-95c0-56 19-97 73-99zm17 164c33 0 40-30 41-66 1-37-9-64-41-64s-38 30-39 65c0 43 13 65 39 65" id="G"/><path d="M18-100v-36l175-74v27L42-118l151 64v27" id="H"/><path d="M136-208V0H84v-208H4v-40h212v40h-80" id="I"/><path d="M18-27v-27l151-64-151-65v-27l175 74v36" id="J"/><g id="c"><use transform="matrix(0.05,0,0,0.05,0,0)" xlink:href="#x"/><use transform="matrix(0.05,0,0,0.05,12.950000000000001,0)" xlink:href="#E"/><use transform="matrix(0.05,0,0,0.05,23.900000000000002,0)" xlink:href="#o"/><use transform="matrix(0.05,0,0,0.05,28.900000000000002,0)" xlink:href="#F"/><use transform="matrix(0.05,0,0,0.05,33.900000000000006,0)" xlink:href="#G"/><use transform="matrix(0.05,0,0,0.05,44.85000000000001,0)" xlink:href="#r"/><use transform="matrix(0.05,0,0,0.05,54.85,0)" xlink:href="#s"/><use transform="matrix(0.05,0,0,0.05,61.85,0)" xlink:href="#H"/><use transform="matrix(0.05,0,0,0.05,72.35000000000001,0)" xlink:href="#I"/><use transform="matrix(0.05,0,0,0.05,83.30000000000001,0)" xlink:href="#J"/></g><path fill="#333" d="M185-189c-5-48-123-54-124 2 14 75 158 14 163 119 3 78-121 87-175 55-17-10-28-26-33-46l33-7c5 56 141 63 141-1 0-78-155-14-162-118-5-82 145-84 179-34 5 7 8 16 11 25" id="K"/><path fill="#333" d="M24-231v-30h32v30H24zM24 0v-190h32V0H24" id="L"/><path fill="#333" d="M210-169c-67 3-38 105-44 169h-31v-121c0-29-5-50-35-48C34-165 62-65 56 0H25l-1-190h30c1 10-1 24 2 32 10-44 99-50 107 0 11-21 27-35 58-36 85-2 47 119 55 194h-31v-121c0-29-5-49-35-48" id="M"/><path fill="#333" d="M115-194c55 1 70 41 70 98S169 2 115 4C84 4 66-9 55-30l1 105H24l-1-265h31l2 30c10-21 28-34 59-34zm-8 174c40 0 45-34 45-75s-6-73-45-74c-42 0-51 32-51 76 0 43 10 73 51 73" id="N"/><path fill="#333" d="M24 0v-261h32V0H24" id="O"/><path fill="#333" d="M100-194c63 0 86 42 84 106H49c0 40 14 67 53 68 26 1 43-12 49-29l28 8c-11 28-37 45-77 45C44 4 14-33 15-96c1-61 26-98 85-98zm52 81c6-60-76-77-97-28-3 7-6 17-6 28h103" id="P"/><g id="d"><use transform="matrix(0.049382716049382706,0,0,0.049382716049382706,0,0)" xlink:href="#K"/><use transform="matrix(0.049382716049382706,0,0,0.049382716049382706,11.85185185185185,0)" xlink:href="#L"/><use transform="matrix(0.049382716049382706,0,0,0.049382716049382706,15.753086419753084,0)" xlink:href="#M"/><use transform="matrix(0.049382716049382706,0,0,0.049382716049382706,30.518518518518512,0)" xlink:href="#N"/><use transform="matrix(0.049382716049382706,0,0,0.049382716049382706,40.39506172839505,0)" xlink:href="#O"/><use transform="matrix(0.049382716049382706,0,0,0.049382716049382706,44.29629629629628,0)" xlink:href="#P"/></g><path fill="#333" d="M160-131c35 5 61 23 61 61C221 17 115-2 30 0v-248c76 3 177-17 177 60 0 33-19 50-47 57zm-97-11c50-1 110 9 110-42 0-47-63-36-110-37v79zm0 115c55-2 124 14 124-45 0-56-70-42-124-44v89" id="Q"/><path fill="#333" d="M117-194c89-4 53 116 60 194h-32v-121c0-31-8-49-39-48C34-167 62-67 57 0H25l-1-190h30c1 10-1 24 2 32 11-22 29-35 61-36" id="R"/><path fill="#333" d="M141-36C126-15 110 5 73 4 37 3 15-17 15-53c-1-64 63-63 125-63 3-35-9-54-41-54-24 1-41 7-42 31l-33-3c5-37 33-52 76-52 45 0 72 20 72 64v82c-1 20 7 32 28 27v20c-31 9-61-2-59-35zM48-53c0 20 12 33 32 33 41-3 63-29 60-74-43 2-92-5-92 41" id="S"/><path fill="#333" d="M114-163C36-179 61-72 57 0H25l-1-190h30c1 12-1 29 2 39 6-27 23-49 58-41v29" id="T"/><path fill="#333" d="M179-190L93 31C79 59 56 82 12 73V49c39 6 53-20 64-50L1-190h34L92-34l54-156h33" id="U"/><path fill="#333" d="M30-248c118-7 216 8 213 122C240-48 200 0 122 0H30v-248zM63-27c89 8 146-16 146-99s-60-101-146-95v194" id="V"/><path fill="#333" d="M96-169c-40 0-48 33-48 73s9 75 48 75c24 0 41-14 43-38l32 2c-6 37-31 61-74 61-59 0-76-41-82-99-10-93 101-131 147-64 4 7 5 14 7 22l-32 3c-4-21-16-35-41-35" id="W"/><path fill="#333" d="M135-143c-3-34-86-38-87 0 15 53 115 12 119 90S17 21 10-45l28-5c4 36 97 45 98 0-10-56-113-15-118-90-4-57 82-63 122-42 12 7 21 19 24 35" id="X"/><path fill="#333" d="M100-194c62-1 85 37 85 99 1 63-27 99-86 99S16-35 15-95c0-66 28-99 85-99zM99-20c44 1 53-31 53-75 0-43-8-75-51-75s-53 32-53 75 10 74 51 75" id="Y"/><path fill="#333" d="M177-190C167-65 218 103 67 71c-23-6-38-20-44-43l32-5c15 47 100 32 89-28v-30C133-14 115 1 83 1 29 1 15-40 15-95c0-56 16-97 71-98 29-1 48 16 59 35 1-10 0-23 2-32h30zM94-22c36 0 50-32 50-73 0-42-14-75-50-75-39 0-46 34-46 75s6 73 46 73" id="Z"/><g id="e"><use transform="matrix(0.049382716049382706,0,0,0.049382716049382706,0,0)" xlink:href="#Q"/><use transform="matrix(0.049382716049382706,0,0,0.049382716049382706,11.85185185185185,0)" xlink:href="#L"/><use transform="matrix(0.049382716049382706,0,0,0.049382716049382706,15.753086419753084,0)" xlink:href="#R"/><use transform="matrix(0.049382716049382706,0,0,0.049382716049382706,25.629629629629626,0)" xlink:href="#S"/><use transform="matrix(0.049382716049382706,0,0,0.049382716049382706,35.50617283950616,0)" xlink:href="#T"/><use transform="matrix(0.049382716049382706,0,0,0.049382716049382706,41.38271604938271,0)" xlink:href="#U"/><use transform="matrix(0.049382716049382706,0,0,0.049382716049382706,50.271604938271594,0)" xlink:href="#V"/><use transform="matrix(0.049382716049382706,0,0,0.049382716049382706,63.061728395061714,0)" xlink:href="#P"/><use transform="matrix(0.049382716049382706,0,0,0.049382716049382706,72.93827160493825,0)" xlink:href="#W"/><use transform="matrix(0.049382716049382706,0,0,0.049382716049382706,81.82716049382714,0)" xlink:href="#L"/><use transform="matrix(0.049382716049382706,0,0,0.049382716049382706,85.72839506172836,0)" xlink:href="#X"/><use transform="matrix(0.049382716049382706,0,0,0.049382716049382706,94.61728395061725,0)" xlink:href="#L"/><use transform="matrix(0.049382716049382706,0,0,0.049382716049382706,98.51851851851848,0)" xlink:href="#Y"/><use transform="matrix(0.049382716049382706,0,0,0.049382716049382706,108.39506172839502,0)" xlink:href="#R"/><use transform="matrix(0.049382716049382706,0,0,0.049382716049382706,118.27160493827157,0)" xlink:href="#V"/><use transform="matrix(0.049382716049382706,0,0,0.049382716049382706,131.0617283950617,0)" xlink:href="#L"/><use transform="matrix(0.049382716049382706,0,0,0.049382716049382706,134.96296296296293,0)" xlink:href="#S"/><use transform="matrix(0.049382716049382706,0,0,0.049382716049382706,144.83950617283946,0)" xlink:href="#Z"/><use transform="matrix(0.049382716049382706,0,0,0.049382716049382706,154.716049382716,0)" xlink:href="#T"/><use transform="matrix(0.049382716049382706,0,0,0.049382716049382706,160.59259259259252,0)" xlink:href="#S"/><use transform="matrix(0.049382716049382706,0,0,0.049382716049382706,170.46913580246905,0)" xlink:href="#M"/></g><path fill="#333" d="M84 4C-5 8 30-112 23-190h32v120c0 31 7 50 39 49 72-2 45-101 50-169h31l1 190h-30c-1-10 1-25-2-33-11 22-28 36-60 37" id="aa"/><path fill="#333" d="M85-194c31 0 48 13 60 33l-1-100h32l1 261h-30c-2-10 0-23-3-31C134-8 116 4 85 4 32 4 16-35 15-94c0-66 23-100 70-100zm9 24c-40 0-46 34-46 75 0 40 6 74 45 74 42 0 51-32 51-76 0-42-9-74-50-73" id="ab"/><g id="f"><use transform="matrix(0.049382716049382706,0,0,0.049382716049382706,0,0)" xlink:href="#Q"/><use transform="matrix(0.049382716049382706,0,0,0.049382716049382706,11.85185185185185,0)" xlink:href="#aa"/><use transform="matrix(0.049382716049382706,0,0,0.049382716049382706,21.728395061728392,0)" xlink:href="#L"/><use transform="matrix(0.049382716049382706,0,0,0.049382716049382706,25.629629629629626,0)" xlink:href="#O"/><use transform="matrix(0.049382716049382706,0,0,0.049382716049382706,29.530864197530857,0)" xlink:href="#ab"/><use transform="matrix(0.049382716049382706,0,0,0.049382716049382706,39.407407407407405,0)" xlink:href="#P"/><use transform="matrix(0.049382716049382706,0,0,0.049382716049382706,49.28395061728395,0)" xlink:href="#T"/></g><path fill="#333" d="M233-177c-1 41-23 64-60 70L243 0h-38l-65-103H63V0H30v-248c88 3 205-21 203 71zM63-129c60-2 137 13 137-47 0-61-80-42-137-45v92" id="ac"/><g id="g"><use transform="matrix(0.049382716049382706,0,0,0.049382716049382706,0,0)" xlink:href="#ac"/><use transform="matrix(0.049382716049382706,0,0,0.049382716049382706,12.790123456790122,0)" xlink:href="#P"/><use transform="matrix(0.049382716049382706,0,0,0.049382716049382706,22.666666666666664,0)" xlink:href="#ab"/><use transform="matrix(0.049382716049382706,0,0,0.049382716049382706,32.5432098765432,0)" xlink:href="#aa"/><use transform="matrix(0.049382716049382706,0,0,0.049382716049382706,42.419753086419746,0)" xlink:href="#W"/><use transform="matrix(0.049382716049382706,0,0,0.049382716049382706,51.30864197530863,0)" xlink:href="#P"/><use transform="matrix(0.049382716049382706,0,0,0.049382716049382706,61.185185185185176,0)" xlink:href="#ab"/></g><path fill="#333" d="M88-194c31-1 46 15 58 34l-1-101h50l1 261h-48c-2-10 0-23-3-31C134-8 116 4 84 4 32 4 16-41 15-95c0-56 19-97 73-99zm17 164c33 0 40-30 41-66 1-37-9-64-41-64s-38 30-39 65c0 43 13 65 39 65" id="ad"/><path fill="#333" d="M185-48c-13 30-37 53-82 52C43 2 14-33 14-96s30-98 90-98c62 0 83 45 84 108H66c0 31 8 55 39 56 18 0 30-7 34-22zm-45-69c5-46-57-63-70-21-2 6-4 13-4 21h74" id="ae"/><path fill="#333" d="M25 0v-261h50V0H25" id="af"/><path fill="#333" d="M195-6C206 82 75 100 31 46c-4-6-6-13-8-21l49-6c3 16 16 24 34 25 40 0 42-37 40-79-11 22-30 35-61 35-53 0-70-43-70-97 0-56 18-96 73-97 30 0 46 14 59 34l2-30h47zm-90-29c32 0 41-27 41-63 0-35-9-62-40-62-32 0-39 29-40 63 0 36 9 62 39 62" id="ag"/><path fill="#333" d="M133-34C117-15 103 5 69 4 32 3 11-16 11-54c-1-60 55-63 116-61 1-26-3-47-28-47-18 1-26 9-28 27l-52-2c7-38 36-58 82-57s74 22 75 68l1 82c-1 14 12 18 25 15v27c-30 8-71 5-69-32zm-48 3c29 0 43-24 42-57-32 0-66-3-65 30 0 17 8 27 23 27" id="ah"/><path fill="#333" d="M115-3C79 11 28 4 28-45v-112H4v-33h27l15-45h31v45h36v33H77v99c-1 23 16 31 38 25v30" id="ai"/><path fill="#333" d="M137-138c1-29-70-34-71-4 15 46 118 7 119 86 1 83-164 76-172 9l43-7c4 19 20 25 44 25 33 8 57-30 24-41C81-84 22-81 20-136c-2-80 154-74 161-7" id="aj"/><g id="h"><use transform="matrix(0.04938271604938272,0,0,0.04938271604938272,0,0)" xlink:href="#ad"/><use transform="matrix(0.04938271604938272,0,0,0.04938271604938272,10.814814814814815,0)" xlink:href="#ae"/><use transform="matrix(0.04938271604938272,0,0,0.04938271604938272,20.69135802469136,0)" xlink:href="#af"/><use transform="matrix(0.04938271604938272,0,0,0.04938271604938272,25.629629629629633,0)" xlink:href="#ae"/><use transform="matrix(0.04938271604938272,0,0,0.04938271604938272,35.50617283950618,0)" xlink:href="#ag"/><use transform="matrix(0.04938271604938272,0,0,0.04938271604938272,46.320987654320994,0)" xlink:href="#ah"/><use transform="matrix(0.04938271604938272,0,0,0.04938271604938272,56.19753086419754,0)" xlink:href="#ai"/><use transform="matrix(0.04938271604938272,0,0,0.04938271604938272,62.074074074074076,0)" xlink:href="#ae"/><use transform="matrix(0.04938271604938272,0,0,0.04938271604938272,71.95061728395063,0)" xlink:href="#aj"/></g><path fill="#333" d="M127-220V0H93v-220H8v-28h204v28h-85" id="ak"/><g id="i"><use transform="matrix(0.049382716049382706,0,0,0.049382716049382706,0,0)" xlink:href="#ak"/><use transform="matrix(0.049382716049382706,0,0,0.049382716049382706,8.839506172839505,0)" xlink:href="#P"/><use transform="matrix(0.049382716049382706,0,0,0.049382716049382706,18.716049382716044,0)" xlink:href="#T"/><use transform="matrix(0.049382716049382706,0,0,0.049382716049382706,24.592592592592585,0)" xlink:href="#M"/><use transform="matrix(0.049382716049382706,0,0,0.049382716049382706,39.35802469135801,0)" xlink:href="#L"/><use transform="matrix(0.049382716049382706,0,0,0.049382716049382706,43.259259259259245,0)" xlink:href="#R"/><use transform="matrix(0.049382716049382706,0,0,0.049382716049382706,53.13580246913578,0)" xlink:href="#S"/><use transform="matrix(0.049382716049382706,0,0,0.049382716049382706,63.01234567901232,0)" xlink:href="#O"/></g><path fill="#333" d="M137 0h-34L2-248h35l83 218 83-218h36" id="al"/><path fill="#333" d="M115-194c53 0 69 39 70 98 0 66-23 100-70 100C84 3 66-7 56-30L54 0H23l1-261h32v101c10-23 28-34 59-34zm-8 174c40 0 45-34 45-75 0-40-5-75-45-74-42 0-51 32-51 76 0 43 10 73 51 73" id="am"/><g id="j"><use transform="matrix(0.049382716049382706,0,0,0.049382716049382706,0,0)" xlink:href="#al"/><use transform="matrix(0.049382716049382706,0,0,0.049382716049382706,10.518518518518515,0)" xlink:href="#S"/><use transform="matrix(0.049382716049382706,0,0,0.049382716049382706,20.395061728395056,0)" xlink:href="#T"/><use transform="matrix(0.049382716049382706,0,0,0.049382716049382706,26.2716049382716,0)" xlink:href="#L"/><use transform="matrix(0.049382716049382706,0,0,0.049382716049382706,30.172839506172835,0)" xlink:href="#S"/><use transform="matrix(0.049382716049382706,0,0,0.049382716049382706,40.04938271604937,0)" xlink:href="#am"/><use transform="matrix(0.049382716049382706,0,0,0.049382716049382706,49.92592592592591,0)" xlink:href="#O"/><use transform="matrix(0.049382716049382706,0,0,0.049382716049382706,53.82716049382714,0)" xlink:href="#P"/></g><path fill="#333" d="M135-194c52 0 70 43 70 98 0 56-19 99-73 100-30 1-46-15-58-35L72 0H24l1-261h50v104c11-23 29-37 60-37zM114-30c31 0 40-27 40-66 0-37-7-63-39-63s-41 28-41 65c0 36 8 64 40 64" id="an"/><path fill="#333" d="M85 4C-2 5 27-109 22-190h50c7 57-23 150 33 157 60-5 35-97 40-157h50l1 190h-47c-2-12 1-28-3-38-12 25-28 42-61 42" id="ao"/><path fill="#333" d="M25-224v-37h50v37H25zM25 0v-190h50V0H25" id="ap"/><g id="k"><use transform="matrix(0.04938271604938272,0,0,0.04938271604938272,0,0)" xlink:href="#an"/><use transform="matrix(0.04938271604938272,0,0,0.04938271604938272,10.814814814814815,0)" xlink:href="#ao"/><use transform="matrix(0.04938271604938272,0,0,0.04938271604938272,21.62962962962963,0)" xlink:href="#ap"/><use transform="matrix(0.04938271604938272,0,0,0.04938271604938272,26.567901234567902,0)" xlink:href="#af"/><use transform="matrix(0.04938271604938272,0,0,0.04938271604938272,31.506172839506174,0)" xlink:href="#ad"/><use transform="matrix(0.04938271604938272,0,0,0.04938271604938272,42.32098765432099,0)" xlink:href="#aj"/></g><path fill="#333" d="M153-248C145-148 188 4 80 4 36 3 13-21 6-62l32-5c4 25 16 42 43 43 27 0 39-20 39-49v-147H72v-28h81" id="aq"/><path fill="#333" d="M108 0H70L1-190h34L89-25l56-165h34" id="ar"/><g id="l"><use transform="matrix(0.049382716049382706,0,0,0.049382716049382706,0,0)" xlink:href="#aq"/><use transform="matrix(0.049382716049382706,0,0,0.049382716049382706,8.888888888888888,0)" xlink:href="#ar"/><use transform="matrix(0.049382716049382706,0,0,0.049382716049382706,17.777777777777775,0)" xlink:href="#M"/></g><g id="m"><use transform="matrix(0.049382716049382706,0,0,0.049382716049382706,0,0)" xlink:href="#aq"/><use transform="matrix(0.049382716049382706,0,0,0.049382716049382706,8.888888888888888,0)" xlink:href="#X"/></g></defs></g></svg>