<svg xmlns="http://www.w3.org/2000/svg" xmlns:xlink="http://www.w3.org/1999/xlink" xmlns:lucid="lucid" width="921" height="638"><g transform="translate(-63 -23)" lucid:page-tab-id="R3By~.u96Z7c"><path d="M380 226c0-3.3 2.7-6 6-6h268c3.3 0 6 2.7 6 6v68c0 3.3-2.7 6-6 6H386c-3.3 0-6-2.7-6-6z" stroke="#5e5e5e" stroke-width="3" fill="#fff"/><use xlink:href="#a" transform="matrix(1,0,0,1,388.00000000000034,228) translate(76.55 24.799999999999997)"/><use xlink:href="#b" transform="matrix(1,0,0,1,388.00000000000034,228) translate(14.700000000000017 46.4)"/><path d="M80 395c0-3.3 2.7-6 6-6h228c3.3 0 6 2.7 6 6v90c0 3.3-2.7 6-6 6H86c-3.3 0-6-2.7-6-6z" stroke="#5e5e5e" stroke-width="3" fill="#fff"/><use xlink:href="#a" transform="matrix(1,0,0,1,88.00000000000045,397) translate(56.55 25)"/><use xlink:href="#c" transform="matrix(1,0,0,1,88.00000000000045,397) translate(10.675000000000011 46.6)"/><use xlink:href="#d" transform="matrix(1,0,0,1,88.00000000000045,397) translate(59.24999999999999 68.2)"/><path d="M720 395c0-3.3 2.7-6 6-6h228c3.3 0 6 2.7 6 6v90c0 3.3-2.7 6-6 6H726c-3.3 0-6-2.7-6-6z" stroke="#5e5e5e" stroke-width="3" fill="#fff"/><use xlink:href="#a" transform="matrix(1,0,0,1,728,397) translate(56.55 25)"/><use xlink:href="#c" transform="matrix(1,0,0,1,728,397) translate(10.675000000000011 46.6)"/><use xlink:href="#e" transform="matrix(1,0,0,1,728,397) translate(61.55 68.2)"/><path d="M200 386.5v-36c0-3.3 2.7-6 6-6h237.38c3.3 0 6-2.7 6-6v-12.52" stroke="#5e5e5e" stroke-width="2" fill="none"/><path d="M201 387.5h-2v-1.03h2z" fill="#5e5e5e"/><path d="M449.38 303.46l12.72 21.52h-25.45z" stroke="#5e5e5e" stroke-width="2" fill="#fff"/><path d="M840 386.5v-36c0-3.3-2.7-6-6-6H598.5c-3.32 0-6-2.7-6-6v-12.52" stroke="#5e5e5e" stroke-width="2" fill="none"/><path d="M841 387.5h-2v-1.03h2z" fill="#5e5e5e"/><path d="M592.5 303.46l12.7 21.52h-25.44z" stroke="#5e5e5e" stroke-width="2" fill="#fff"/><path d="M400 526c0-3.3 2.7-6 6-6h228c3.3 0 6 2.7 6 6v108c0 3.3-2.7 6-6 6H406c-3.3 0-6-2.7-6-6z" stroke="#5e5e5e" stroke-width="3" fill="#fff"/><use xlink:href="#a" transform="matrix(1,0,0,1,408.0000000000002,528) translate(56.55 34)"/><use xlink:href="#c" transform="matrix(1,0,0,1,408.0000000000002,528) translate(10.675000000000011 55.6)"/><use xlink:href="#f" transform="matrix(1,0,0,1,408.0000000000002,528) translate(68.25 77.2)"/><path d="M80 46c0-3.3 2.7-6 6-6h228c3.3 0 6 2.7 6 6v90c0 3.3-2.7 6-6 6H86c-3.3 0-6-2.7-6-6z" stroke="#5e5e5e" stroke-width="3" fill="#fff"/><use xlink:href="#a" transform="matrix(1,0,0,1,88.00000000000045,48) translate(56.55 25)"/><use xlink:href="#g" transform="matrix(1,0,0,1,88.00000000000045,48) translate(10.675000000000011 46.6)"/><use xlink:href="#h" transform="matrix(1,0,0,1,88.00000000000045,48) translate(65.1 68.2)"/><path d="M720 226c0-3.3 2.7-6 6-6h228c3.3 0 6 2.7 6 6v68c0 3.3-2.7 6-6 6H726c-3.3 0-6-2.7-6-6z" stroke="#5e5e5e" stroke-width="3" fill="#e5e5e5"/><use xlink:href="#i" transform="matrix(1,0,0,1,720,220) translate(27.387716049382767 31.72222222222222)"/><use xlink:href="#j" transform="matrix(1,0,0,1,720,220) translate(102.79512345679014 53.05555555555555)"/><path d="M80 226c0-3.3 2.7-6 6-6h228c3.3 0 6 2.7 6 6v68c0 3.3-2.7 6-6 6H86c-3.3 0-6-2.7-6-6z" stroke="#5e5e5e" stroke-width="3" fill="#e5e5e5"/><use xlink:href="#i" transform="matrix(1,0,0,1,80.00000000000045,220) translate(27.387716049382767 31.72222222222222)"/><use xlink:href="#k" transform="matrix(1,0,0,1,80.00000000000045,220) translate(80.54820987654323 53.05555555555555)"/><path d="M397.5 581h-4v-2h4zm-11.97 0h-7.98v-2h7.98zm-15.96 0h-7.98v-2h7.97zm-15.96 0h-7.96v-2h7.97zm-15.94 0h-7.98v-2h7.98zm-15.96 0h-7.98v-2h7.98zm-15.96 0h-7.98v-2h7.98zm-15.96 0h-7.98v-2h7.98zm-15.96 0h-7.98v-2h7.98zm-15.96 0h-7.97v-2h7.96zm-15.95 0h-7.97v-2h7.98zM201 562.05h-2v-7.97h2zm0-15.94h-2v-7.96h2zm0-15.93h-2v-7.96h2zm0-15.93h-2v-7.97h2zm0-15.94h-2v-3.98h2z" fill="#5e5e5e"/><path d="M398.5 581h-1.03v-2h1.03zM211.04 511.17l-1.72 1.02-9.32-15.77-9.32 15.76-1.72-1.03L200 492.5z" fill="#5e5e5e"/><use xlink:href="#l" transform="matrix(1,0,0,1,185.72646401820631,569.3333333333334) translate(0 14.222222222222223)"/><path d="M646.5 581h-4v-2h4zm15.95 0h-7.98v-2h7.98zm15.96 0h-7.97v-2h7.98zm15.96 0h-7.97v-2h7.96zm15.96 0h-7.98v-2h7.98zm15.96 0h-7.98v-2h7.98zm15.96 0h-7.98v-2h7.98zm15.96 0h-7.98v-2h7.98zm15.96 0h-7.98v-2h7.98zm15.95 0h-7.96v-2h7.97zm15.97 0h-7.98v-2h7.97zM841 562.05h-2v-7.97h2zm0-15.94h-2v-7.96h2zm0-15.93h-2v-7.96h2zm0-15.93h-2v-7.97h2zm0-15.94h-2v-3.98h2z" fill="#5e5e5e"/><path d="M642.53 581h-1.03v-2h1.03zM851.04 511.17l-1.72 1.02-9.32-15.77-9.32 15.76-1.72-1.03L840 492.5z" fill="#5e5e5e"/><use xlink:href="#l" transform="matrix(1,0,0,1,808.1615255401995,569.3333333333334) translate(0 14.222222222222223)"/><path d="M521 516.68h-2v-4.12h2zm0-12.35h-2v-8.24h2zm0-16.48h-2v-8.24h2zm0-16.48h-2v-8.23h2zm0-16.47h-2v-8.24h2zm0-16.48h-2v-8.23h2zm0-16.47h-2v-1.28h2zm0-22.62h-2v-2.1h2zm0-10.33h-2v-8.24h2zm0-16.48h-2v-8.24h2zm0-16.47h-2v-8.24h2zm0-16.48h-2v-8.24h2zm0-16.48h-2v-8.24h2zm0-16.48h-2v-4.12h2z" fill="#5e5e5e"/><path d="M521 302.53h-2v-1.03h2zM531.04 499.83L520 518.5l-11.04-18.67 1.72-1.02 9.32 15.77 9.32-15.76z" fill="#5e5e5e"/><use xlink:href="#m" transform="matrix(1,0,0,1,486.96296296296316,399.3333333333333) translate(0 14.222222222222223)"/><path d="M450 216.68h-2v-4.27h2zm0-12.82h-2v-8.55h2zm0-17.1h-2v-8.55h2zm0-17.1h-2v-8.54h2zm0-17.1h-2v-8.54h2zm0-17.1h-2v-8.54h2zm0-17.1h-2v-8.54h2zM326.27 92h-3.77v-2h3.77zm15.06 0h-7.53v-2h7.53zm15.06 0h-7.54v-2h7.53zm15.05 0h-7.53v-2h7.53zm15.07 0h-7.54v-2h7.54zm15.06 0h-7.53v-2h7.53zm15.06 0h-7.53v-2h7.54z" fill="#5e5e5e"/><path d="M322.53 92h-1.03v-2h1.03zM460.04 199.83L449 218.5l-11.04-18.67 1.72-1.02 9.32 15.77 9.32-15.76z" fill="#5e5e5e"/><use xlink:href="#n" transform="matrix(1,0,0,1,422.90123456790167,80.33333333333333) translate(0 14.222222222222223)"/><path d="M717.5 260h-4.52m-9.03 0h-9.03m-9.03 0h-9.04m-9.03 0h-4.5" stroke="#5e5e5e" stroke-width="2" fill="none"/><path d="M718.5 261h-1.03v-2h1.03z" fill="#5e5e5e"/><path d="M680.68 249.82L663.46 260l17.22 10.18" stroke="#5e5e5e" stroke-width="2" fill="none"/><path d="M201 217.5h-2v-3.6h2zm0-10.83h-2v-7.22h2zm0-28.96h-2v-7.12h2zm0-14.34h-2v-7.2h2zm0-14.43h-2v-3.6h2z" fill="#5e5e5e"/><path d="M201 218.5h-2v-1.03h2zM211.04 162.17l-1.72 1.02-9.32-15.77-9.32 15.76-1.72-1.03L200 143.5z" fill="#5e5e5e"/><use xlink:href="#o" transform="matrix(1,0,0,1,179.77777777777823,177.7138283362735) translate(0 14.222222222222223)"/><path d="M322.5 260h4.52m9.03 0h9.03m9.03 0h9.04m9.03 0h4.5" stroke="#5e5e5e" stroke-width="2" fill="none"/><path d="M322.53 261h-1.03v-2h1.03z" fill="#5e5e5e"/><path d="M359.32 270.18L376.54 260l-17.22-10.18" stroke="#5e5e5e" stroke-width="2" fill="none"/><path d="M534 66c0-3.3 2.7-6 6-6h88c3.3 0 6 2.7 6 6v50c0 3.3-2.7 6-6 6h-88c-3.3 0-6-2.7-6-6z" stroke="#5e5e5e" stroke-width="3" fill="#fff"/><g><use xlink:href="#p" transform="matrix(1,0,0,1,541.9999999999999,68) translate(4 15.799999999999999)"/><use xlink:href="#q" transform="matrix(1,0,0,1,541.9999999999999,68) translate(36.525 37.4)"/></g><path d="M584 124.5v93" stroke="#5e5e5e" stroke-width="2" fill="none"/><path d="M585 124.53h-2v-1.03h2zM585 218.5h-2v-1.03h2z" fill="#5e5e5e"/><path d="M760 57c0-3.3 2.7-6 6-6h148c3.3 0 6 2.7 6 6v68c0 3.3-2.7 6-6 6H766c-3.3 0-6-2.7-6-6z" stroke="#5e5e5e" stroke-width="3" fill="#fff"/><g><use xlink:href="#a" transform="matrix(1,0,0,1,768,59) translate(16.549999999999997 24.799999999999997)"/><use xlink:href="#r" transform="matrix(1,0,0,1,768,59) translate(4.125 46.4)"/></g><path d="M636.5 91h97.52" stroke="#5e5e5e" stroke-width="2" fill="none"/><path d="M636.53 92h-1.03v-2h1.03z" fill="#5e5e5e"/><path d="M756.54 91l-21.52 12.73V78.27z" stroke="#5e5e5e" stroke-width="2" fill="#fff"/><defs><path d="M18-100v-36l175-74v27L42-118l151 64v27" id="s"/><path d="M24-231v-30h32v30H24zM24 0v-190h32V0H24" id="t"/><path d="M117-194c89-4 53 116 60 194h-32v-121c0-31-8-49-39-48C34-167 62-67 57 0H25l-1-190h30c1 10-1 24 2 32 11-22 29-35 61-36" id="u"/><path d="M59-47c-2 24 18 29 38 22v24C64 9 27 4 27-40v-127H5v-23h24l9-43h21v43h35v23H59v120" id="v"/><path d="M100-194c63 0 86 42 84 106H49c0 40 14 67 53 68 26 1 43-12 49-29l28 8c-11 28-37 45-77 45C44 4 14-33 15-96c1-61 26-98 85-98zm52 81c6-60-76-77-97-28-3 7-6 17-6 28h103" id="w"/><path d="M114-163C36-179 61-72 57 0H25l-1-190h30c1 12-1 29 2 39 6-27 23-49 58-41v29" id="x"/><path d="M101-234c-31-9-42 10-38 44h38v23H63V0H32v-167H5v-23h27c-7-52 17-82 69-68v24" id="y"/><path d="M141-36C126-15 110 5 73 4 37 3 15-17 15-53c-1-64 63-63 125-63 3-35-9-54-41-54-24 1-41 7-42 31l-33-3c5-37 33-52 76-52 45 0 72 20 72 64v82c-1 20 7 32 28 27v20c-31 9-61-2-59-35zM48-53c0 20 12 33 32 33 41-3 63-29 60-74-43 2-92-5-92 41" id="z"/><path d="M96-169c-40 0-48 33-48 73s9 75 48 75c24 0 41-14 43-38l32 2c-6 37-31 61-74 61-59 0-76-41-82-99-10-93 101-131 147-64 4 7 5 14 7 22l-32 3c-4-21-16-35-41-35" id="A"/><path d="M18-27v-27l151-64-151-65v-27l175 74v36" id="B"/><g id="a"><use transform="matrix(0.05,0,0,0.05,0,0)" xlink:href="#s"/><use transform="matrix(0.05,0,0,0.05,10.5,0)" xlink:href="#s"/><use transform="matrix(0.05,0,0,0.05,21,0)" xlink:href="#t"/><use transform="matrix(0.05,0,0,0.05,24.95,0)" xlink:href="#u"/><use transform="matrix(0.05,0,0,0.05,34.95,0)" xlink:href="#v"/><use transform="matrix(0.05,0,0,0.05,39.95,0)" xlink:href="#w"/><use transform="matrix(0.05,0,0,0.05,49.95,0)" xlink:href="#x"/><use transform="matrix(0.05,0,0,0.05,55.900000000000006,0)" xlink:href="#y"/><use transform="matrix(0.05,0,0,0.05,60.900000000000006,0)" xlink:href="#z"/><use transform="matrix(0.05,0,0,0.05,70.9,0)" xlink:href="#A"/><use transform="matrix(0.05,0,0,0.05,79.9,0)" xlink:href="#w"/><use transform="matrix(0.05,0,0,0.05,89.9,0)" xlink:href="#B"/><use transform="matrix(0.05,0,0,0.05,100.4,0)" xlink:href="#B"/></g><path d="M182-130c37 4 62 22 62 59C244 23 116-4 24 0v-248c84 5 203-23 205 63 0 31-19 50-47 55zM76-148c40-3 101 13 101-30 0-44-60-28-101-31v61zm0 110c48-3 116 14 116-37 0-48-69-32-116-35v72" id="C"/><path d="M25-224v-37h50v37H25zM25 0v-190h50V0H25" id="D"/><path d="M135-194c87-1 58 113 63 194h-50c-7-57 23-157-34-157-59 0-34 97-39 157H25l-1-190h47c2 12-1 28 3 38 12-26 28-41 61-42" id="E"/><path d="M133-34C117-15 103 5 69 4 32 3 11-16 11-54c-1-60 55-63 116-61 1-26-3-47-28-47-18 1-26 9-28 27l-52-2c7-38 36-58 82-57s74 22 75 68l1 82c-1 14 12 18 25 15v27c-30 8-71 5-69-32zm-48 3c29 0 43-24 42-57-32 0-66-3-65 30 0 17 8 27 23 27" id="F"/><path d="M135-150c-39-12-60 13-60 57V0H25l-1-190h47c2 13-1 29 3 40 6-28 27-53 61-41v41" id="G"/><path d="M123 10C108 53 80 86 19 72V37c35 8 53-11 59-39L3-190h52l48 148c12-52 28-100 44-148h51" id="H"/><path d="M24-248c120-7 223 5 221 122C244-46 201 0 124 0H24v-248zM76-40c74 7 117-18 117-86 0-67-45-88-117-82v168" id="I"/><path d="M185-48c-13 30-37 53-82 52C43 2 14-33 14-96s30-98 90-98c62 0 83 45 84 108H66c0 31 8 55 39 56 18 0 30-7 34-22zm-45-69c5-46-57-63-70-21-2 6-4 13-4 21h74" id="J"/><path d="M190-63c-7 42-38 67-86 67-59 0-84-38-90-98-12-110 154-137 174-36l-49 2c-2-19-15-32-35-32-30 0-35 28-38 64-6 74 65 87 74 30" id="K"/><path d="M137-138c1-29-70-34-71-4 15 46 118 7 119 86 1 83-164 76-172 9l43-7c4 19 20 25 44 25 33 8 57-30 24-41C81-84 22-81 20-136c-2-80 154-74 161-7" id="L"/><path d="M110-194c64 0 96 36 96 99 0 64-35 99-97 99-61 0-95-36-95-99 0-62 34-99 96-99zm-1 164c35 0 45-28 45-65 0-40-10-65-43-65-34 0-45 26-45 65 0 36 10 65 43 65" id="M"/><path d="M195-6C206 82 75 100 31 46c-4-6-6-13-8-21l49-6c3 16 16 24 34 25 40 0 42-37 40-79-11 22-30 35-61 35-53 0-70-43-70-97 0-56 18-96 73-97 30 0 46 14 59 34l2-30h47zm-90-29c32 0 41-27 41-63 0-35-9-62-40-62-32 0-39 29-40 63 0 36 9 62 39 62" id="N"/><path d="M220-157c-53 9-28 100-34 157h-49v-107c1-27-5-49-29-50C55-147 81-57 75 0H25l-1-190h47c2 12-1 28 3 38 10-53 101-56 108 0 13-22 24-43 59-42 82 1 51 116 57 194h-49v-107c-1-25-5-48-29-50" id="O"/><path d="M136-208V0H84v-208H4v-40h212v40h-80" id="P"/><g id="b"><use transform="matrix(0.05,0,0,0.05,0,0)" xlink:href="#C"/><use transform="matrix(0.05,0,0,0.05,12.950000000000001,0)" xlink:href="#D"/><use transform="matrix(0.05,0,0,0.05,17.950000000000003,0)" xlink:href="#E"/><use transform="matrix(0.05,0,0,0.05,28.900000000000006,0)" xlink:href="#F"/><use transform="matrix(0.05,0,0,0.05,38.900000000000006,0)" xlink:href="#G"/><use transform="matrix(0.05,0,0,0.05,45.900000000000006,0)" xlink:href="#H"/><use transform="matrix(0.05,0,0,0.05,55.900000000000006,0)" xlink:href="#I"/><use transform="matrix(0.05,0,0,0.05,68.85000000000001,0)" xlink:href="#J"/><use transform="matrix(0.05,0,0,0.05,78.85000000000001,0)" xlink:href="#K"/><use transform="matrix(0.05,0,0,0.05,88.85000000000001,0)" xlink:href="#D"/><use transform="matrix(0.05,0,0,0.05,93.85000000000001,0)" xlink:href="#L"/><use transform="matrix(0.05,0,0,0.05,103.85000000000001,0)" xlink:href="#D"/><use transform="matrix(0.05,0,0,0.05,108.85000000000001,0)" xlink:href="#M"/><use transform="matrix(0.05,0,0,0.05,119.80000000000001,0)" xlink:href="#E"/><use transform="matrix(0.05,0,0,0.05,130.75,0)" xlink:href="#I"/><use transform="matrix(0.05,0,0,0.05,143.7,0)" xlink:href="#D"/><use transform="matrix(0.05,0,0,0.05,148.7,0)" xlink:href="#F"/><use transform="matrix(0.05,0,0,0.05,158.7,0)" xlink:href="#N"/><use transform="matrix(0.05,0,0,0.05,169.64999999999998,0)" xlink:href="#G"/><use transform="matrix(0.05,0,0,0.05,176.64999999999998,0)" xlink:href="#F"/><use transform="matrix(0.05,0,0,0.05,186.64999999999998,0)" xlink:href="#O"/><use transform="matrix(0.05,0,0,0.05,202.64999999999998,0)" xlink:href="#s"/><use transform="matrix(0.05,0,0,0.05,213.14999999999998,0)" xlink:href="#P"/><use transform="matrix(0.05,0,0,0.05,224.09999999999997,0)" xlink:href="#B"/></g><g id="c"><use transform="matrix(0.05,0,0,0.05,0,0)" xlink:href="#C"/><use transform="matrix(0.05,0,0,0.05,12.950000000000001,0)" xlink:href="#D"/><use transform="matrix(0.05,0,0,0.05,17.950000000000003,0)" xlink:href="#E"/><use transform="matrix(0.05,0,0,0.05,28.900000000000006,0)" xlink:href="#F"/><use transform="matrix(0.05,0,0,0.05,38.900000000000006,0)" xlink:href="#G"/><use transform="matrix(0.05,0,0,0.05,45.900000000000006,0)" xlink:href="#H"/><use transform="matrix(0.05,0,0,0.05,55.900000000000006,0)" xlink:href="#I"/><use transform="matrix(0.05,0,0,0.05,68.85000000000001,0)" xlink:href="#J"/><use transform="matrix(0.05,0,0,0.05,78.85000000000001,0)" xlink:href="#K"/><use transform="matrix(0.05,0,0,0.05,88.85000000000001,0)" xlink:href="#D"/><use transform="matrix(0.05,0,0,0.05,93.85000000000001,0)" xlink:href="#L"/><use transform="matrix(0.05,0,0,0.05,103.85000000000001,0)" xlink:href="#D"/><use transform="matrix(0.05,0,0,0.05,108.85000000000001,0)" xlink:href="#M"/><use transform="matrix(0.05,0,0,0.05,119.80000000000001,0)" xlink:href="#E"/><use transform="matrix(0.05,0,0,0.05,130.75,0)" xlink:href="#I"/><use transform="matrix(0.05,0,0,0.05,143.7,0)" xlink:href="#D"/><use transform="matrix(0.05,0,0,0.05,148.7,0)" xlink:href="#F"/><use transform="matrix(0.05,0,0,0.05,158.7,0)" xlink:href="#N"/><use transform="matrix(0.05,0,0,0.05,169.64999999999998,0)" xlink:href="#G"/><use transform="matrix(0.05,0,0,0.05,176.64999999999998,0)" xlink:href="#F"/><use transform="matrix(0.05,0,0,0.05,186.64999999999998,0)" xlink:href="#O"/></g><path d="M25 0v-261h50V0H25" id="Q"/><g id="d"><use transform="matrix(0.05,0,0,0.05,0,0)" xlink:href="#P"/><use transform="matrix(0.05,0,0,0.05,9.600000000000001,0)" xlink:href="#J"/><use transform="matrix(0.05,0,0,0.05,19.6,0)" xlink:href="#G"/><use transform="matrix(0.05,0,0,0.05,26.6,0)" xlink:href="#O"/><use transform="matrix(0.05,0,0,0.05,42.6,0)" xlink:href="#D"/><use transform="matrix(0.05,0,0,0.05,47.6,0)" xlink:href="#E"/><use transform="matrix(0.05,0,0,0.05,58.550000000000004,0)" xlink:href="#F"/><use transform="matrix(0.05,0,0,0.05,68.55000000000001,0)" xlink:href="#Q"/><use transform="matrix(0.05,0,0,0.05,73.55000000000001,0)" xlink:href="#s"/><use transform="matrix(0.05,0,0,0.05,84.05000000000001,0)" xlink:href="#P"/><use transform="matrix(0.05,0,0,0.05,95.00000000000001,0)" xlink:href="#B"/></g><path d="M147 0H94L2-248h55l64 206c17-72 42-137 63-206h54" id="R"/><path d="M135-194c52 0 70 43 70 98 0 56-19 99-73 100-30 1-46-15-58-35L72 0H24l1-261h50v104c11-23 29-37 60-37zM114-30c31 0 40-27 40-66 0-37-7-63-39-63s-41 28-41 65c0 36 8 64 40 64" id="S"/><g id="e"><use transform="matrix(0.05,0,0,0.05,0,0)" xlink:href="#R"/><use transform="matrix(0.05,0,0,0.05,11,0)" xlink:href="#F"/><use transform="matrix(0.05,0,0,0.05,21,0)" xlink:href="#G"/><use transform="matrix(0.05,0,0,0.05,28,0)" xlink:href="#D"/><use transform="matrix(0.05,0,0,0.05,33,0)" xlink:href="#F"/><use transform="matrix(0.05,0,0,0.05,43,0)" xlink:href="#S"/><use transform="matrix(0.05,0,0,0.05,53.95,0)" xlink:href="#Q"/><use transform="matrix(0.05,0,0,0.05,58.95,0)" xlink:href="#J"/><use transform="matrix(0.05,0,0,0.05,68.95,0)" xlink:href="#s"/><use transform="matrix(0.05,0,0,0.05,79.45,0)" xlink:href="#P"/><use transform="matrix(0.05,0,0,0.05,90.4,0)" xlink:href="#B"/></g><path d="M115-3C79 11 28 4 28-45v-112H4v-33h27l15-45h31v45h36v33H77v99c-1 23 16 31 38 25v30" id="T"/><g id="f"><use transform="matrix(0.05,0,0,0.05,0,0)" xlink:href="#R"/><use transform="matrix(0.05,0,0,0.05,11.65,0)" xlink:href="#D"/><use transform="matrix(0.05,0,0,0.05,16.65,0)" xlink:href="#L"/><use transform="matrix(0.05,0,0,0.05,26.649999999999995,0)" xlink:href="#D"/><use transform="matrix(0.05,0,0,0.05,31.649999999999995,0)" xlink:href="#T"/><use transform="matrix(0.05,0,0,0.05,37.6,0)" xlink:href="#M"/><use transform="matrix(0.05,0,0,0.05,48.550000000000004,0)" xlink:href="#G"/><use transform="matrix(0.05,0,0,0.05,55.550000000000004,0)" xlink:href="#s"/><use transform="matrix(0.05,0,0,0.05,66.05000000000001,0)" xlink:href="#P"/><use transform="matrix(0.05,0,0,0.05,77.00000000000001,0)" xlink:href="#B"/></g><g id="g"><use transform="matrix(0.05,0,0,0.05,0,0)" xlink:href="#C"/><use transform="matrix(0.05,0,0,0.05,12.950000000000001,0)" xlink:href="#D"/><use transform="matrix(0.05,0,0,0.05,17.950000000000003,0)" xlink:href="#E"/><use transform="matrix(0.05,0,0,0.05,28.900000000000006,0)" xlink:href="#F"/><use transform="matrix(0.05,0,0,0.05,38.900000000000006,0)" xlink:href="#G"/><use transform="matrix(0.05,0,0,0.05,45.900000000000006,0)" xlink:href="#H"/><use transform="matrix(0.05,0,0,0.05,55.900000000000006,0)" xlink:href="#I"/><use transform="matrix(0.05,0,0,0.05,68.85000000000001,0)" xlink:href="#J"/><use transform="matrix(0.05,0,0,0.05,78.85000000000001,0)" xlink:href="#K"/><use transform="matrix(0.05,0,0,0.05,88.85000000000001,0)" xlink:href="#D"/><use transform="matrix(0.05,0,0,0.05,93.85000000000001,0)" xlink:href="#L"/><use transform="matrix(0.05,0,0,0.05,103.85000000000001,0)" xlink:href="#D"/><use transform="matrix(0.05,0,0,0.05,108.85000000000001,0)" xlink:href="#M"/><use transform="matrix(0.05,0,0,0.05,119.80000000000001,0)" xlink:href="#E"/><use transform="matrix(0.05,0,0,0.05,130.75,0)" xlink:href="#I"/><use transform="matrix(0.05,0,0,0.05,143.7,0)" xlink:href="#D"/><use transform="matrix(0.05,0,0,0.05,148.7,0)" xlink:href="#F"/><use transform="matrix(0.05,0,0,0.05,158.7,0)" xlink:href="#N"/><use transform="matrix(0.05,0,0,0.05,169.64999999999998,0)" xlink:href="#G"/><use transform="matrix(0.05,0,0,0.05,176.64999999999998,0)" xlink:href="#F"/><use transform="matrix(0.05,0,0,0.05,186.64999999999998,0)" xlink:href="#O"/></g><path d="M85 4C-2 5 27-109 22-190h50c7 57-23 150 33 157 60-5 35-97 40-157h50l1 190h-47c-2-12 1-28-3-38-12 25-28 42-61 42" id="U"/><path d="M88-194c31-1 46 15 58 34l-1-101h50l1 261h-48c-2-10 0-23-3-31C134-8 116 4 84 4 32 4 16-41 15-95c0-56 19-97 73-99zm17 164c33 0 40-30 41-66 1-37-9-64-41-64s-38 30-39 65c0 43 13 65 39 65" id="V"/><g id="h"><use transform="matrix(0.05,0,0,0.05,0,0)" xlink:href="#C"/><use transform="matrix(0.05,0,0,0.05,12.950000000000001,0)" xlink:href="#U"/><use transform="matrix(0.05,0,0,0.05,23.900000000000002,0)" xlink:href="#D"/><use transform="matrix(0.05,0,0,0.05,28.900000000000002,0)" xlink:href="#Q"/><use transform="matrix(0.05,0,0,0.05,33.900000000000006,0)" xlink:href="#V"/><use transform="matrix(0.05,0,0,0.05,44.85000000000001,0)" xlink:href="#J"/><use transform="matrix(0.05,0,0,0.05,54.85,0)" xlink:href="#G"/><use transform="matrix(0.05,0,0,0.05,61.85,0)" xlink:href="#s"/><use transform="matrix(0.05,0,0,0.05,72.35000000000001,0)" xlink:href="#P"/><use transform="matrix(0.05,0,0,0.05,83.30000000000001,0)" xlink:href="#B"/></g><path fill="#333" d="M160-131c35 5 61 23 61 61C221 17 115-2 30 0v-248c76 3 177-17 177 60 0 33-19 50-47 57zm-97-11c50-1 110 9 110-42 0-47-63-36-110-37v79zm0 115c55-2 124 14 124-45 0-56-70-42-124-44v89" id="W"/><path fill="#333" d="M24-231v-30h32v30H24zM24 0v-190h32V0H24" id="X"/><path fill="#333" d="M117-194c89-4 53 116 60 194h-32v-121c0-31-8-49-39-48C34-167 62-67 57 0H25l-1-190h30c1 10-1 24 2 32 11-22 29-35 61-36" id="Y"/><path fill="#333" d="M141-36C126-15 110 5 73 4 37 3 15-17 15-53c-1-64 63-63 125-63 3-35-9-54-41-54-24 1-41 7-42 31l-33-3c5-37 33-52 76-52 45 0 72 20 72 64v82c-1 20 7 32 28 27v20c-31 9-61-2-59-35zM48-53c0 20 12 33 32 33 41-3 63-29 60-74-43 2-92-5-92 41" id="Z"/><path fill="#333" d="M114-163C36-179 61-72 57 0H25l-1-190h30c1 12-1 29 2 39 6-27 23-49 58-41v29" id="aa"/><path fill="#333" d="M179-190L93 31C79 59 56 82 12 73V49c39 6 53-20 64-50L1-190h34L92-34l54-156h33" id="ab"/><path fill="#333" d="M30-248c118-7 216 8 213 122C240-48 200 0 122 0H30v-248zM63-27c89 8 146-16 146-99s-60-101-146-95v194" id="ac"/><path fill="#333" d="M100-194c63 0 86 42 84 106H49c0 40 14 67 53 68 26 1 43-12 49-29l28 8c-11 28-37 45-77 45C44 4 14-33 15-96c1-61 26-98 85-98zm52 81c6-60-76-77-97-28-3 7-6 17-6 28h103" id="ad"/><path fill="#333" d="M96-169c-40 0-48 33-48 73s9 75 48 75c24 0 41-14 43-38l32 2c-6 37-31 61-74 61-59 0-76-41-82-99-10-93 101-131 147-64 4 7 5 14 7 22l-32 3c-4-21-16-35-41-35" id="ae"/><path fill="#333" d="M135-143c-3-34-86-38-87 0 15 53 115 12 119 90S17 21 10-45l28-5c4 36 97 45 98 0-10-56-113-15-118-90-4-57 82-63 122-42 12 7 21 19 24 35" id="af"/><path fill="#333" d="M100-194c62-1 85 37 85 99 1 63-27 99-86 99S16-35 15-95c0-66 28-99 85-99zM99-20c44 1 53-31 53-75 0-43-8-75-51-75s-53 32-53 75 10 74 51 75" id="ag"/><path fill="#333" d="M177-190C167-65 218 103 67 71c-23-6-38-20-44-43l32-5c15 47 100 32 89-28v-30C133-14 115 1 83 1 29 1 15-40 15-95c0-56 16-97 71-98 29-1 48 16 59 35 1-10 0-23 2-32h30zM94-22c36 0 50-32 50-73 0-42-14-75-50-75-39 0-46 34-46 75s6 73 46 73" id="ah"/><path fill="#333" d="M210-169c-67 3-38 105-44 169h-31v-121c0-29-5-50-35-48C34-165 62-65 56 0H25l-1-190h30c1 10-1 24 2 32 10-44 99-50 107 0 11-21 27-35 58-36 85-2 47 119 55 194h-31v-121c0-29-5-49-35-48" id="ai"/><g id="i"><use transform="matrix(0.049382716049382706,0,0,0.049382716049382706,0,0)" xlink:href="#W"/><use transform="matrix(0.049382716049382706,0,0,0.049382716049382706,11.85185185185185,0)" xlink:href="#X"/><use transform="matrix(0.049382716049382706,0,0,0.049382716049382706,15.753086419753084,0)" xlink:href="#Y"/><use transform="matrix(0.049382716049382706,0,0,0.049382716049382706,25.629629629629626,0)" xlink:href="#Z"/><use transform="matrix(0.049382716049382706,0,0,0.049382716049382706,35.50617283950616,0)" xlink:href="#aa"/><use transform="matrix(0.049382716049382706,0,0,0.049382716049382706,41.38271604938271,0)" xlink:href="#ab"/><use transform="matrix(0.049382716049382706,0,0,0.049382716049382706,50.271604938271594,0)" xlink:href="#ac"/><use transform="matrix(0.049382716049382706,0,0,0.049382716049382706,63.061728395061714,0)" xlink:href="#ad"/><use transform="matrix(0.049382716049382706,0,0,0.049382716049382706,72.93827160493825,0)" xlink:href="#ae"/><use transform="matrix(0.049382716049382706,0,0,0.049382716049382706,81.82716049382714,0)" xlink:href="#X"/><use transform="matrix(0.049382716049382706,0,0,0.049382716049382706,85.72839506172836,0)" xlink:href="#af"/><use transform="matrix(0.049382716049382706,0,0,0.049382716049382706,94.61728395061725,0)" xlink:href="#X"/><use transform="matrix(0.049382716049382706,0,0,0.049382716049382706,98.51851851851848,0)" xlink:href="#ag"/><use transform="matrix(0.049382716049382706,0,0,0.049382716049382706,108.39506172839502,0)" xlink:href="#Y"/><use transform="matrix(0.049382716049382706,0,0,0.049382716049382706,118.27160493827157,0)" xlink:href="#ac"/><use transform="matrix(0.049382716049382706,0,0,0.049382716049382706,131.0617283950617,0)" xlink:href="#X"/><use transform="matrix(0.049382716049382706,0,0,0.049382716049382706,134.96296296296293,0)" xlink:href="#Z"/><use transform="matrix(0.049382716049382706,0,0,0.049382716049382706,144.83950617283946,0)" xlink:href="#ah"/><use transform="matrix(0.049382716049382706,0,0,0.049382716049382706,154.716049382716,0)" xlink:href="#aa"/><use transform="matrix(0.049382716049382706,0,0,0.049382716049382706,160.59259259259252,0)" xlink:href="#Z"/><use transform="matrix(0.049382716049382706,0,0,0.049382716049382706,170.46913580246905,0)" xlink:href="#ai"/></g><path fill="#333" d="M232-93c-1 65-40 97-104 97C67 4 28-28 28-90v-158h33c8 89-33 224 67 224 102 0 64-133 71-224h33v155" id="aj"/><path fill="#333" d="M59-47c-2 24 18 29 38 22v24C64 9 27 4 27-40v-127H5v-23h24l9-43h21v43h35v23H59v120" id="ak"/><path fill="#333" d="M24 0v-261h32V0H24" id="al"/><g id="j"><use transform="matrix(0.049382716049382706,0,0,0.049382716049382706,0,0)" xlink:href="#aj"/><use transform="matrix(0.049382716049382706,0,0,0.049382716049382706,12.790123456790122,0)" xlink:href="#ak"/><use transform="matrix(0.049382716049382706,0,0,0.049382716049382706,17.728395061728392,0)" xlink:href="#X"/><use transform="matrix(0.049382716049382706,0,0,0.049382716049382706,21.629629629629626,0)" xlink:href="#al"/><use transform="matrix(0.049382716049382706,0,0,0.049382716049382706,25.53086419753086,0)" xlink:href="#af"/></g><path fill="#333" d="M140-251c81 0 123 46 123 126C263-46 219 4 140 4 59 4 17-45 17-125s42-126 123-126zm0 227c63 0 89-41 89-101s-29-99-89-99c-61 0-89 39-89 99S79-25 140-24" id="am"/><path fill="#333" d="M115-194c55 1 70 41 70 98S169 2 115 4C84 4 66-9 55-30l1 105H24l-1-265h31l2 30c10-21 28-34 59-34zm-8 174c40 0 45-34 45-75s-6-73-45-74c-42 0-51 32-51 76 0 43 10 73 51 73" id="an"/><g id="k"><use transform="matrix(0.049382716049382706,0,0,0.049382716049382706,0,0)" xlink:href="#am"/><use transform="matrix(0.049382716049382706,0,0,0.049382716049382706,13.827160493827158,0)" xlink:href="#an"/><use transform="matrix(0.049382716049382706,0,0,0.049382716049382706,23.7037037037037,0)" xlink:href="#ad"/><use transform="matrix(0.049382716049382706,0,0,0.049382716049382706,33.58024691358024,0)" xlink:href="#aa"/><use transform="matrix(0.049382716049382706,0,0,0.049382716049382706,39.456790123456784,0)" xlink:href="#Z"/><use transform="matrix(0.049382716049382706,0,0,0.049382716049382706,49.33333333333333,0)" xlink:href="#ak"/><use transform="matrix(0.049382716049382706,0,0,0.049382716049382706,54.27160493827161,0)" xlink:href="#ag"/><use transform="matrix(0.049382716049382706,0,0,0.049382716049382706,64.14814814814814,0)" xlink:href="#aa"/><use transform="matrix(0.049382716049382706,0,0,0.049382716049382706,70.02469135802468,0)" xlink:href="#af"/></g><path fill="#333" d="M128 0H69L1-190h53L99-40l48-150h52" id="ao"/><path fill="#333" d="M25-224v-37h50v37H25zM25 0v-190h50V0H25" id="ap"/><path fill="#333" d="M137-138c1-29-70-34-71-4 15 46 118 7 119 86 1 83-164 76-172 9l43-7c4 19 20 25 44 25 33 8 57-30 24-41C81-84 22-81 20-136c-2-80 154-74 161-7" id="aq"/><path fill="#333" d="M115-3C79 11 28 4 28-45v-112H4v-33h27l15-45h31v45h36v33H77v99c-1 23 16 31 38 25v30" id="ar"/><g id="l"><use transform="matrix(0.04938271604938272,0,0,0.04938271604938272,0,0)" xlink:href="#ao"/><use transform="matrix(0.04938271604938272,0,0,0.04938271604938272,9.876543209876544,0)" xlink:href="#ap"/><use transform="matrix(0.04938271604938272,0,0,0.04938271604938272,14.814814814814817,0)" xlink:href="#aq"/><use transform="matrix(0.04938271604938272,0,0,0.04938271604938272,24.69135802469136,0)" xlink:href="#ap"/><use transform="matrix(0.04938271604938272,0,0,0.04938271604938272,29.629629629629633,0)" xlink:href="#ar"/><use transform="matrix(0.04938271604938272,0,0,0.04938271604938272,35.50617283950618,0)" xlink:href="#aq"/></g><path fill="#333" d="M133-34C117-15 103 5 69 4 32 3 11-16 11-54c-1-60 55-63 116-61 1-26-3-47-28-47-18 1-26 9-28 27l-52-2c7-38 36-58 82-57s74 22 75 68l1 82c-1 14 12 18 25 15v27c-30 8-71 5-69-32zm-48 3c29 0 43-24 42-57-32 0-66-3-65 30 0 17 8 27 23 27" id="as"/><path fill="#333" d="M190-63c-7 42-38 67-86 67-59 0-84-38-90-98-12-110 154-137 174-36l-49 2c-2-19-15-32-35-32-30 0-35 28-38 64-6 74 65 87 74 30" id="at"/><path fill="#333" d="M185-48c-13 30-37 53-82 52C43 2 14-33 14-96s30-98 90-98c62 0 83 45 84 108H66c0 31 8 55 39 56 18 0 30-7 34-22zm-45-69c5-46-57-63-70-21-2 6-4 13-4 21h74" id="au"/><path fill="#333" d="M135-194c53 0 70 44 70 98 0 56-19 98-73 100-31 1-45-17-59-34 3 33 2 69 2 105H25l-1-265h48c2 10 0 23 3 31 11-24 29-35 60-35zM114-30c33 0 39-31 40-66 0-38-9-64-40-64-56 0-55 130 0 130" id="av"/><g id="m"><use transform="matrix(0.04938271604938272,0,0,0.04938271604938272,0,0)" xlink:href="#as"/><use transform="matrix(0.04938271604938272,0,0,0.04938271604938272,9.876543209876544,0)" xlink:href="#at"/><use transform="matrix(0.04938271604938272,0,0,0.04938271604938272,19.75308641975309,0)" xlink:href="#at"/><use transform="matrix(0.04938271604938272,0,0,0.04938271604938272,29.629629629629633,0)" xlink:href="#au"/><use transform="matrix(0.04938271604938272,0,0,0.04938271604938272,39.50617283950618,0)" xlink:href="#av"/><use transform="matrix(0.04938271604938272,0,0,0.04938271604938272,50.320987654320994,0)" xlink:href="#ar"/><use transform="matrix(0.04938271604938272,0,0,0.04938271604938272,56.19753086419754,0)" xlink:href="#aq"/></g><path fill="#333" d="M135-194c52 0 70 43 70 98 0 56-19 99-73 100-30 1-46-15-58-35L72 0H24l1-261h50v104c11-23 29-37 60-37zM114-30c31 0 40-27 40-66 0-37-7-63-39-63s-41 28-41 65c0 36 8 64 40 64" id="aw"/><path fill="#333" d="M85 4C-2 5 27-109 22-190h50c7 57-23 150 33 157 60-5 35-97 40-157h50l1 190h-47c-2-12 1-28-3-38-12 25-28 42-61 42" id="ax"/><path fill="#333" d="M25 0v-261h50V0H25" id="ay"/><path fill="#333" d="M88-194c31-1 46 15 58 34l-1-101h50l1 261h-48c-2-10 0-23-3-31C134-8 116 4 84 4 32 4 16-41 15-95c0-56 19-97 73-99zm17 164c33 0 40-30 41-66 1-37-9-64-41-64s-38 30-39 65c0 43 13 65 39 65" id="az"/><g id="n"><use transform="matrix(0.04938271604938272,0,0,0.04938271604938272,0,0)" xlink:href="#aw"/><use transform="matrix(0.04938271604938272,0,0,0.04938271604938272,10.814814814814815,0)" xlink:href="#ax"/><use transform="matrix(0.04938271604938272,0,0,0.04938271604938272,21.62962962962963,0)" xlink:href="#ap"/><use transform="matrix(0.04938271604938272,0,0,0.04938271604938272,26.567901234567902,0)" xlink:href="#ay"/><use transform="matrix(0.04938271604938272,0,0,0.04938271604938272,31.506172839506174,0)" xlink:href="#az"/><use transform="matrix(0.04938271604938272,0,0,0.04938271604938272,42.32098765432099,0)" xlink:href="#aq"/></g><g id="o"><use transform="matrix(0.04938271604938272,0,0,0.04938271604938272,0,0)" xlink:href="#ax"/><use transform="matrix(0.04938271604938272,0,0,0.04938271604938272,10.814814814814815,0)" xlink:href="#aq"/><use transform="matrix(0.04938271604938272,0,0,0.04938271604938272,20.69135802469136,0)" xlink:href="#au"/><use transform="matrix(0.04938271604938272,0,0,0.04938271604938272,30.567901234567906,0)" xlink:href="#aq"/></g><path d="M179-190L93 31C79 59 56 82 12 73V49c39 6 53-20 64-50L1-190h34L92-34l54-156h33" id="aA"/><path d="M115-194c55 1 70 41 70 98S169 2 115 4C84 4 66-9 55-30l1 105H24l-1-265h31l2 30c10-21 28-34 59-34zm-8 174c40 0 45-34 45-75s-6-73-45-74c-42 0-51 32-51 76 0 43 10 73 51 73" id="aB"/><g id="p"><use transform="matrix(0.05,0,0,0.05,0,0)" xlink:href="#s"/><use transform="matrix(0.05,0,0,0.05,10.5,0)" xlink:href="#s"/><use transform="matrix(0.05,0,0,0.05,21,0)" xlink:href="#v"/><use transform="matrix(0.05,0,0,0.05,26,0)" xlink:href="#aA"/><use transform="matrix(0.05,0,0,0.05,35,0)" xlink:href="#aB"/><use transform="matrix(0.05,0,0,0.05,45,0)" xlink:href="#w"/><use transform="matrix(0.05,0,0,0.05,55,0)" xlink:href="#B"/><use transform="matrix(0.05,0,0,0.05,65.5,0)" xlink:href="#B"/></g><use transform="matrix(0.05,0,0,0.05,0,0)" xlink:href="#P" id="q"/><path d="M67-125c0 53 21 87 73 88 37 1 54-22 65-47l45 17C233-25 199 4 140 4 58 4 20-42 15-125 8-235 124-281 211-232c18 10 29 29 36 50l-46 12c-8-25-30-41-62-41-52 0-71 34-72 86" id="aC"/><path d="M135-194c53 0 70 44 70 98 0 56-19 98-73 100-31 1-45-17-59-34 3 33 2 69 2 105H25l-1-265h48c2 10 0 23 3 31 11-24 29-35 60-35zM114-30c33 0 39-31 40-66 0-38-9-64-40-64-56 0-55 130 0 130" id="aD"/><g id="r"><use transform="matrix(0.05,0,0,0.05,0,0)" xlink:href="#aC"/><use transform="matrix(0.05,0,0,0.05,12.950000000000001,0)" xlink:href="#M"/><use transform="matrix(0.05,0,0,0.05,23.900000000000002,0)" xlink:href="#O"/><use transform="matrix(0.05,0,0,0.05,39.900000000000006,0)" xlink:href="#aD"/><use transform="matrix(0.05,0,0,0.05,50.85000000000001,0)" xlink:href="#F"/><use transform="matrix(0.05,0,0,0.05,60.85,0)" xlink:href="#G"/><use transform="matrix(0.05,0,0,0.05,67.85000000000001,0)" xlink:href="#F"/><use transform="matrix(0.05,0,0,0.05,77.85000000000001,0)" xlink:href="#S"/><use transform="matrix(0.05,0,0,0.05,88.80000000000001,0)" xlink:href="#Q"/><use transform="matrix(0.05,0,0,0.05,93.80000000000001,0)" xlink:href="#J"/><use transform="matrix(0.05,0,0,0.05,103.80000000000001,0)" xlink:href="#s"/><use transform="matrix(0.05,0,0,0.05,114.30000000000001,0)" xlink:href="#P"/><use transform="matrix(0.05,0,0,0.05,125.25,0)" xlink:href="#B"/></g></defs></g></svg>