<?xml version="1.0" encoding="UTF-8" standalone="no"?>
<svg
   width="803"
   height="403"
   version="1.1"
   id="svg191"
   sodipodi:docname="design-architecture.svg"
   inkscape:version="1.1 (c4e8f9ed74, 2021-05-24)"
   xmlns:inkscape="http://www.inkscape.org/namespaces/inkscape"
   xmlns:sodipodi="http://sodipodi.sourceforge.net/DTD/sodipodi-0.dtd"
   xmlns:xlink="http://www.w3.org/1999/xlink"
   xmlns="http://www.w3.org/2000/svg"
   xmlns:svg="http://www.w3.org/2000/svg">
  <defs
     id="defs195">
    <defs
       id="defs187">
      <path
         fill="#333333"
         d="m 135,-194 c 52,0 70,43 70,98 C 205,-40 186,3 132,4 102,5 86,-11 74,-31 L 72,0 H 24 l 1,-261 h 50 v 104 c 11,-23 29,-37 60,-37 z m -21,164 c 31,0 40,-27 40,-66 0,-37 -7,-63 -39,-63 -32,0 -41,28 -41,65 0,36 8,64 40,64"
         id="g" />
      <path
         fill="#333333"
         d="m 88,-194 c 31,-1 46,15 58,34 l -1,-101 h 50 l 1,261 h -48 c -2,-10 0,-23 -3,-31 C 134,-8 116,4 84,4 32,4 16,-41 15,-95 c 0,-56 19,-97 73,-99 z m 17,164 c 33,0 40,-30 41,-66 1,-37 -9,-64 -41,-64 -32,0 -38,30 -39,65 0,43 13,65 39,65"
         id="h" />
      <g
         id="a">
        <use
           transform="scale(0.0617284)"
           xlink:href="#g"
           id="use62"
           x="0"
           y="0"
           width="100%"
           height="100%" />
        <use
           transform="matrix(0.0617284,0,0,0.0617284,13.518519,0)"
           xlink:href="#h"
           id="use64"
           x="0"
           y="0"
           width="100%"
           height="100%" />
        <use
           transform="matrix(0.0617284,0,0,0.0617284,27.037037,0)"
           xlink:href="#h"
           id="use66"
           x="0"
           y="0"
           width="100%"
           height="100%" />
      </g>
      <path
         fill="#333333"
         d="m 137,-138 c 1,-29 -70,-34 -71,-4 15,46 118,7 119,86 1,83 -164,76 -172,9 l 43,-7 c 4,19 20,25 44,25 33,8 57,-30 24,-41 -43,-14 -102,-11 -104,-66 -2,-80 154,-74 161,-7"
         id="i" />
      <path
         fill="#333333"
         d="m 110,-194 c 64,0 96,36 96,99 0,64 -35,99 -97,99 -61,0 -95,-36 -95,-99 0,-62 34,-99 96,-99 z m -1,164 c 35,0 45,-28 45,-65 0,-40 -10,-65 -43,-65 -34,0 -45,26 -45,65 0,36 10,65 43,65"
         id="j" />
      <path
         fill="#333333"
         d="M 25,0 V -261 H 75 V 0 H 25"
         id="k" />
      <path
         fill="#333333"
         d="M 128,0 H 69 L 1,-190 h 53 l 45,150 48,-150 h 52"
         id="l" />
      <path
         fill="#333333"
         d="M 185,-48 C 172,-18 148,5 103,4 43,2 14,-33 14,-96 c 0,-63 30,-98 90,-98 62,0 83,45 84,108 H 66 c 0,31 8,55 39,56 18,0 30,-7 34,-22 z m -45,-69 c 5,-46 -57,-63 -70,-21 -2,6 -4,13 -4,21 h 74"
         id="m" />
      <g
         id="b">
        <use
           transform="scale(0.0617284)"
           xlink:href="#i"
           id="use74"
           x="0"
           y="0"
           width="100%"
           height="100%" />
        <use
           transform="matrix(0.0617284,0,0,0.0617284,12.345679,0)"
           xlink:href="#j"
           id="use76"
           x="0"
           y="0"
           width="100%"
           height="100%" />
        <use
           transform="matrix(0.0617284,0,0,0.0617284,25.864198,0)"
           xlink:href="#k"
           id="use78"
           x="0"
           y="0"
           width="100%"
           height="100%" />
        <use
           transform="matrix(0.0617284,0,0,0.0617284,32.037037,0)"
           xlink:href="#l"
           id="use80"
           x="0"
           y="0"
           width="100%"
           height="100%" />
        <use
           transform="matrix(0.0617284,0,0,0.0617284,44.382716,0)"
           xlink:href="#m"
           id="use82"
           x="0"
           y="0"
           width="100%"
           height="100%" />
      </g>
      <path
         fill="#333333"
         d="m 14,-72 v -43 h 91 v 43 H 14"
         id="n" />
      <path
         fill="#333333"
         d="m 135,-194 c 53,0 70,44 70,98 0,56 -19,98 -73,100 -31,1 -45,-17 -59,-34 3,33 2,69 2,105 H 25 l -1,-265 h 48 c 2,10 0,23 3,31 11,-24 29,-35 60,-35 z m -21,164 c 33,0 39,-31 40,-66 0,-38 -9,-64 -40,-64 -56,0 -55,130 0,130"
         id="o" />
      <g
         id="c">
        <use
           transform="scale(0.0617284)"
           xlink:href="#i"
           id="use87"
           x="0"
           y="0"
           width="100%"
           height="100%" />
        <use
           transform="matrix(0.0617284,0,0,0.0617284,12.345679,0)"
           xlink:href="#j"
           id="use89"
           x="0"
           y="0"
           width="100%"
           height="100%" />
        <use
           transform="matrix(0.0617284,0,0,0.0617284,25.864198,0)"
           xlink:href="#k"
           id="use91"
           x="0"
           y="0"
           width="100%"
           height="100%" />
        <use
           transform="matrix(0.0617284,0,0,0.0617284,32.037037,0)"
           xlink:href="#l"
           id="use93"
           x="0"
           y="0"
           width="100%"
           height="100%" />
        <use
           transform="matrix(0.0617284,0,0,0.0617284,44.382716,0)"
           xlink:href="#m"
           id="use95"
           x="0"
           y="0"
           width="100%"
           height="100%" />
        <use
           transform="matrix(0.0617284,0,0,0.0617284,56.728395,0)"
           xlink:href="#n"
           id="use97"
           x="0"
           y="0"
           width="100%"
           height="100%" />
        <use
           transform="matrix(0.0617284,0,0,0.0617284,64.074074,0)"
           xlink:href="#o"
           id="use99"
           x="0"
           y="0"
           width="100%"
           height="100%" />
        <use
           transform="matrix(0.0617284,0,0,0.0617284,77.592593,0)"
           xlink:href="#k"
           id="use101"
           x="0"
           y="0"
           width="100%"
           height="100%" />
        <use
           transform="matrix(0.0617284,0,0,0.0617284,83.765432,0)"
           xlink:href="#o"
           id="use103"
           x="0"
           y="0"
           width="100%"
           height="100%" />
      </g>
      <path
         fill="#333333"
         d="M 190,-63 C 183,-21 152,4 104,4 45,4 20,-34 14,-94 2,-204 168,-231 188,-130 l -49,2 c -2,-19 -15,-32 -35,-32 -30,0 -35,28 -38,64 -6,74 65,87 74,30"
         id="p" />
      <path
         fill="#333333"
         d="M 133,-34 C 117,-15 103,5 69,4 32,3 11,-16 11,-54 c -1,-60 55,-63 116,-61 1,-26 -3,-47 -28,-47 -18,1 -26,9 -28,27 l -52,-2 c 7,-38 36,-58 82,-57 46,1 74,22 75,68 l 1,82 c -1,14 12,18 25,15 v 27 c -30,8 -71,5 -69,-32 z m -48,3 c 29,0 43,-24 42,-57 -32,0 -66,-3 -65,30 0,17 8,27 23,27"
         id="q" />
      <path
         fill="#333333"
         d="m 25,-224 v -37 h 50 v 37 z M 25,0 V -190 H 75 V 0 H 25"
         id="r" />
      <g
         id="d">
        <use
           transform="scale(0.0617284)"
           xlink:href="#i"
           id="use109"
           x="0"
           y="0"
           width="100%"
           height="100%" />
        <use
           transform="matrix(0.0617284,0,0,0.0617284,12.345679,0)"
           xlink:href="#j"
           id="use111"
           x="0"
           y="0"
           width="100%"
           height="100%" />
        <use
           transform="matrix(0.0617284,0,0,0.0617284,25.864198,0)"
           xlink:href="#k"
           id="use113"
           x="0"
           y="0"
           width="100%"
           height="100%" />
        <use
           transform="matrix(0.0617284,0,0,0.0617284,32.037037,0)"
           xlink:href="#l"
           id="use115"
           x="0"
           y="0"
           width="100%"
           height="100%" />
        <use
           transform="matrix(0.0617284,0,0,0.0617284,44.382716,0)"
           xlink:href="#m"
           id="use117"
           x="0"
           y="0"
           width="100%"
           height="100%" />
        <use
           transform="matrix(0.0617284,0,0,0.0617284,56.728395,0)"
           xlink:href="#n"
           id="use119"
           x="0"
           y="0"
           width="100%"
           height="100%" />
        <use
           transform="matrix(0.0617284,0,0,0.0617284,64.074074,0)"
           xlink:href="#p"
           id="use121"
           x="0"
           y="0"
           width="100%"
           height="100%" />
        <use
           transform="matrix(0.0617284,0,0,0.0617284,76.419753,0)"
           xlink:href="#k"
           id="use123"
           x="0"
           y="0"
           width="100%"
           height="100%" />
        <use
           transform="matrix(0.0617284,0,0,0.0617284,82.592593,0)"
           xlink:href="#q"
           id="use125"
           x="0"
           y="0"
           width="100%"
           height="100%" />
        <use
           transform="matrix(0.0617284,0,0,0.0617284,94.938272,0)"
           xlink:href="#i"
           id="use127"
           x="0"
           y="0"
           width="100%"
           height="100%" />
        <use
           transform="matrix(0.0617284,0,0,0.0617284,107.28395,0)"
           xlink:href="#i"
           id="use129"
           x="0"
           y="0"
           width="100%"
           height="100%" />
        <use
           transform="matrix(0.0617284,0,0,0.0617284,119.62963,0)"
           xlink:href="#r"
           id="use131"
           x="0"
           y="0"
           width="100%"
           height="100%" />
        <use
           transform="matrix(0.0617284,0,0,0.0617284,125.80247,0)"
           xlink:href="#p"
           id="use133"
           x="0"
           y="0"
           width="100%"
           height="100%" />
      </g>
      <path
         fill="#333333"
         d="m 135,-150 c -39,-12 -60,13 -60,57 V 0 H 25 l -1,-190 h 47 c 2,13 -1,29 3,40 6,-28 27,-53 61,-41 v 41"
         id="s" />
      <path
         fill="#333333"
         d="M 195,-6 C 206,82 75,100 31,46 27,40 25,33 23,25 l 49,-6 c 3,16 16,24 34,25 40,0 42,-37 40,-79 C 135,-13 116,0 85,0 32,0 15,-43 15,-97 c 0,-56 18,-96 73,-97 30,0 46,14 59,34 l 2,-30 h 47 z m -90,-29 c 32,0 41,-27 41,-63 0,-35 -9,-62 -40,-62 -32,0 -39,29 -40,63 0,36 9,62 39,62"
         id="t" />
      <g
         id="e">
        <use
           transform="scale(0.0617284)"
           xlink:href="#i"
           id="use138"
           x="0"
           y="0"
           width="100%"
           height="100%" />
        <use
           transform="matrix(0.0617284,0,0,0.0617284,12.345679,0)"
           xlink:href="#j"
           id="use140"
           x="0"
           y="0"
           width="100%"
           height="100%" />
        <use
           transform="matrix(0.0617284,0,0,0.0617284,25.864198,0)"
           xlink:href="#k"
           id="use142"
           x="0"
           y="0"
           width="100%"
           height="100%" />
        <use
           transform="matrix(0.0617284,0,0,0.0617284,32.037037,0)"
           xlink:href="#l"
           id="use144"
           x="0"
           y="0"
           width="100%"
           height="100%" />
        <use
           transform="matrix(0.0617284,0,0,0.0617284,44.382716,0)"
           xlink:href="#m"
           id="use146"
           x="0"
           y="0"
           width="100%"
           height="100%" />
        <use
           transform="matrix(0.0617284,0,0,0.0617284,56.728395,0)"
           xlink:href="#n"
           id="use148"
           x="0"
           y="0"
           width="100%"
           height="100%" />
        <use
           transform="matrix(0.0617284,0,0,0.0617284,64.074074,0)"
           xlink:href="#o"
           id="use150"
           x="0"
           y="0"
           width="100%"
           height="100%" />
        <use
           transform="matrix(0.0617284,0,0,0.0617284,77.592593,0)"
           xlink:href="#s"
           id="use152"
           x="0"
           y="0"
           width="100%"
           height="100%" />
        <use
           transform="matrix(0.0617284,0,0,0.0617284,86.234568,0)"
           xlink:href="#j"
           id="use154"
           x="0"
           y="0"
           width="100%"
           height="100%" />
        <use
           transform="matrix(0.0617284,0,0,0.0617284,99.753086,0)"
           xlink:href="#g"
           id="use156"
           x="0"
           y="0"
           width="100%"
           height="100%" />
        <use
           transform="matrix(0.0617284,0,0,0.0617284,113.2716,0)"
           xlink:href="#k"
           id="use158"
           x="0"
           y="0"
           width="100%"
           height="100%" />
        <use
           transform="matrix(0.0617284,0,0,0.0617284,119.44444,0)"
           xlink:href="#j"
           id="use160"
           x="0"
           y="0"
           width="100%"
           height="100%" />
        <use
           transform="matrix(0.0617284,0,0,0.0617284,132.96296,0)"
           xlink:href="#t"
           id="use162"
           x="0"
           y="0"
           width="100%"
           height="100%" />
      </g>
      <path
         fill="#333333"
         d="M 115,-3 C 79,11 28,4 28,-45 V -157 H 4 v -33 h 27 l 15,-45 h 31 v 45 h 36 v 33 H 77 v 99 c -1,23 16,31 38,25 v 30"
         id="u" />
      <g
         id="f">
        <use
           transform="scale(0.0617284)"
           xlink:href="#u"
           id="use166"
           x="0"
           y="0"
           width="100%"
           height="100%" />
        <use
           transform="matrix(0.0617284,0,0,0.0617284,7.345679,0)"
           xlink:href="#m"
           id="use168"
           x="0"
           y="0"
           width="100%"
           height="100%" />
        <use
           transform="matrix(0.0617284,0,0,0.0617284,19.691358,0)"
           xlink:href="#i"
           id="use170"
           x="0"
           y="0"
           width="100%"
           height="100%" />
        <use
           transform="matrix(0.0617284,0,0,0.0617284,32.037037,0)"
           xlink:href="#u"
           id="use172"
           x="0"
           y="0"
           width="100%"
           height="100%" />
        <use
           transform="matrix(0.0617284,0,0,0.0617284,39.382716,0)"
           xlink:href="#n"
           id="use174"
           x="0"
           y="0"
           width="100%"
           height="100%" />
        <use
           transform="matrix(0.0617284,0,0,0.0617284,46.728395,0)"
           xlink:href="#i"
           id="use176"
           x="0"
           y="0"
           width="100%"
           height="100%" />
        <use
           transform="matrix(0.0617284,0,0,0.0617284,59.074074,0)"
           xlink:href="#j"
           id="use178"
           x="0"
           y="0"
           width="100%"
           height="100%" />
        <use
           transform="matrix(0.0617284,0,0,0.0617284,72.592593,0)"
           xlink:href="#k"
           id="use180"
           x="0"
           y="0"
           width="100%"
           height="100%" />
        <use
           transform="matrix(0.0617284,0,0,0.0617284,78.765432,0)"
           xlink:href="#l"
           id="use182"
           x="0"
           y="0"
           width="100%"
           height="100%" />
        <use
           transform="matrix(0.0617284,0,0,0.0617284,91.111111,0)"
           xlink:href="#m"
           id="use184"
           x="0"
           y="0"
           width="100%"
           height="100%" />
      </g>
    </defs>
  </defs>
  <sodipodi:namedview
     id="namedview193"
     pagecolor="#ffffff"
     bordercolor="#666666"
     borderopacity="1.0"
     inkscape:pageshadow="2"
     inkscape:pageopacity="0.0"
     inkscape:pagecheckerboard="0"
     showgrid="false"
     fit-margin-top="0"
     fit-margin-left="0"
     fit-margin-right="0"
     fit-margin-bottom="0"
     inkscape:zoom="0.53033009"
     inkscape:cx="-195.16147"
     inkscape:cy="310.18417"
     inkscape:window-width="1920"
     inkscape:window-height="1126"
     inkscape:window-x="1440"
     inkscape:window-y="0"
     inkscape:window-maximized="1"
     inkscape:current-layer="svg191" />
  <path
     d="m 89.5,27.5 h 46 c 3.32,0 6,2.7 6,6 v 42 c 0,3.3 -2.68,6 -6,6 H 7.5 c -3.3,0 -6,-2.7 -6,-6 v -68 c 0,-3.3 2.7,-6 6,-6 h 72 c 3.32,0 6.4,2.66 6.92,5.93 z m -88,0 h 88"
     stroke="#5e5e5e"
     stroke-width="3"
     fill="#ffffff"
     id="path4" />
  <use
     xlink:href="#a"
     transform="translate(51.22529,58.94444)"
     id="use6"
     x="0"
     y="0"
     width="100%"
     height="100%" />
  <path
     d="m 589.5,27.5 h 46 c 3.32,0 6,2.7 6,6 v 42 c 0,3.3 -2.68,6 -6,6 h -128 c -3.3,0 -6,-2.7 -6,-6 v -68 c 0,-3.3 2.7,-6 6,-6 h 72 c 3.32,0 6.4,2.66 6.92,5.93 z m -88,0 h 88"
     stroke="#5e5e5e"
     stroke-width="3"
     fill="#e5e5e5"
     id="path8" />
  <use
     xlink:href="#b"
     transform="translate(543.1389,58.94444)"
     id="use10"
     x="0"
     y="0"
     width="100%"
     height="100%" />
  <path
     d="m 254.5,187.5 h 61 c 3.32,0 6,2.7 6,6 v 42 c 0,3.3 -2.68,6 -6,6 h -168 c -3.3,0 -6,-2.7 -6,-6 v -68 c 0,-3.3 2.7,-6 6,-6 h 96 c 3.32,0 6.5,2.64 7.14,5.9 z m -113,0 h 113"
     stroke="#5e5e5e"
     stroke-width="3"
     fill="#ffffff"
     id="path12" />
  <use
     xlink:href="#c"
     transform="translate(182.8611,218.94444)"
     id="use14"
     x="0"
     y="0"
     width="100%"
     height="100%" />
  <path
     d="m 494.5,187.5 h 61 c 3.32,0 6,2.7 6,6 v 42 c 0,3.3 -2.68,6 -6,6 h -168 c -3.3,0 -6,-2.7 -6,-6 v -68 c 0,-3.3 2.7,-6 6,-6 h 96 c 3.32,0 6.5,2.64 7.14,5.9 z m -113,0 h 113"
     stroke="#5e5e5e"
     stroke-width="3"
     fill="#e5e5e5"
     id="path16" />
  <use
     xlink:href="#d"
     transform="translate(402.429,218.94444)"
     id="use18"
     x="0"
     y="0"
     width="100%"
     height="100%" />
  <path
     d="m 312.5,347.5 h 83 c 3.32,0 6,2.7 6,6 v 42 c 0,3.3 -2.68,6 -6,6 h -228 c -3.3,0 -6,-2.7 -6,-6 v -68 c 0,-3.3 2.7,-6 6,-6 h 132 c 3.32,0 6.7,2.6 7.56,5.8 z m -151,0 h 151"
     stroke="#5e5e5e"
     stroke-width="3"
     fill="#ffffff"
     id="path20" />
  <use
     xlink:href="#e"
     transform="translate(208.26233,378.94444)"
     id="use22"
     x="0"
     y="0"
     width="100%"
     height="100%" />
  <path
     d="m 458.19,159 v -3.94 m 0,-7.87 v -7.9 m 0,-7.86 v -3.93 l 0.82,-3.03 2.15,-2.15 3.02,-0.82 h 4.06 m 8.13,0 h 8.13 m 8.13,0 h 8.12 m 8.13,0 h 8.13 m 8.13,0 h 4.06 l 3.03,-0.82 2.15,-2.15 0.82,-3.03 v -3.84 m 0,-7.67 v -7.68 m 0,-7.67 v -3.83"
     stroke="#5e5e5e"
     stroke-width="2"
     fill="none"
     id="path24" />
  <path
     d="m 459.19,160 h -2 v -1.03 h 2 z"
     fill="#5e5e5e"
     id="path26" />
  <path
     d="M 545.37,102.18 535.19,84.96 525.01,102.18 M 231.5,159 v -3.98 m 0,-7.97 v -7.96 m 0,-7.98 v -7.96 m 0,-7.96 v -7.97 m 0,-7.96 v -7.97 m 0,-7.96 v -7.97 m 0,-7.96 v -7.95 m 0,-7.97 V 47.5 l 0.82,-3.03 2.15,-2.15 3.03,-0.82 h 4.08 m 8.15,0 h 8.15 m 8.15,0 h 8.14 m 8.14,0 h 8.14 m 8.15,0 h 8.15 m 8.14,0 h 8.15 m 8.15,0 h 8.14 m 8.15,0 h 8.15 m 8.15,0 h 8.15 m 8.14,0 h 8.14 m 8.15,0 h 8.13 m 8.15,0 h 8.14 m 8.15,0 h 8.15 m 8.14,0 h 8.15 m 8.16,0 h 8.14 m 8.15,0 h 8.15 m 8.14,0 h 4.07"
     stroke="#5e5e5e"
     stroke-width="2"
     fill="none"
     id="path28" />
  <path
     d="m 232.5,160 h -2 v -1.03 h 2 z"
     fill="#5e5e5e"
     id="path30" />
  <path
     d="M 480.82,51.68 498.04,41.5 480.82,31.32 M 159,361.5 h -4.07 m -8.15,0 h -8.14 m -8.15,0 h -8.14 m -8.15,0 h -8.14 m -8.15,0 h -8.14 m -8.15,0 h -4.07 l -3.03,-0.82 -2.15,-2.15 -0.82,-3.03 v -3.98 m 0,-7.96 v -7.96 m 0,-7.96 v -7.97 m 0,-7.96 v -7.95 m 0,-7.96 v -7.97 m 0,-7.96 v -7.96 m 0,-7.95 v -7.97 m 0,-7.96 v -7.96 m 0,-7.96 v -7.96 m 0,-7.96 v -7.96 m 0,-7.96 v -7.97 m 0,-7.97 v -7.96 m 0,-7.96 v -7.95 m 0,-7.96 v -7.97 m 0,-7.96 v -7.97 m 0,-7.96 v -7.96 m 0,-7.96 v -7.96 m 0,-7.96 v -3.98"
     stroke="#5e5e5e"
     stroke-width="2"
     fill="none"
     id="path32" />
  <path
     d="m 160,362.5 h -1.02 v -2 h 1.03 z"
     fill="#5e5e5e"
     id="path34" />
  <path
     d="M 81.67,102.18 71.5,84.96 61.32,102.18 M 337.95,345 v -3.7 m 0,-7.42 v -7.42 m 0,-7.42 v -7.4 m 0,-7.43 v -3.71 l 0.82,-3.03 2.15,-2.15 3.03,-0.82 h 3.8 m 7.6,0 h 7.6 m 7.6,0 h 7.6 m 7.6,0 h 7.58 m 7.6,0 h 7.6 m 7.6,0 h 7.6 m 7.6,0 h 7.58 m 7.6,0 h 7.6 m 7.6,0 h 3.8 l 3.02,-0.82 2.15,-2.15 0.83,-3.03 v -3.64 m 0,-7.28 v -7.28 m 0,-7.28 v -7.28 m 0,-7.28 v -3.64"
     stroke="#5e5e5e"
     stroke-width="2"
     fill="none"
     id="path36" />
  <path
     d="m 336.95,346 v -1.03 h 2 V 346 Z"
     fill="#5e5e5e"
     id="path38" />
  <path
     d="M 481.67,262.18 471.5,244.96 461.32,262.18 M 231.5,319 v -3.7 m 0,-7.43 v -7.42 m 0,-7.4 v -7.43 m 0,-7.42 v -7.42 m 0,-7.42 v -7.4 m 0,-7.43 v -3.7"
     stroke="#5e5e5e"
     stroke-width="2"
     fill="none"
     id="path40" />
  <path
     d="m 232.5,320 h -2 v -1.03 h 2 z"
     fill="#5e5e5e"
     id="path42" />
  <path
     d="M 241.67,262.18 231.5,244.96 221.32,262.18"
     stroke="#5e5e5e"
     stroke-width="2"
     fill="none"
     id="path44" />
  <path
     d="m 734.5,187.5 h 61 c 3.32,0 6,2.7 6,6 v 42 c 0,3.3 -2.68,6 -6,6 h -168 c -3.3,0 -6,-2.7 -6,-6 v -68 c 0,-3.3 2.7,-6 6,-6 h 96 c 3.32,0 6.5,2.64 7.14,5.9 z m -113,0 h 113"
     stroke="#5e5e5e"
     stroke-width="3"
     fill="#e5e5e5"
     id="path46" />
  <use
     xlink:href="#f"
     transform="translate(659.7747,218.94444)"
     id="use48"
     x="0"
     y="0"
     width="100%"
     height="100%" />
  <path
     d="m 668.5,159 v -3.94 m 0,-7.87 v -7.9 m 0,-7.86 v -3.93 l -0.82,-3.03 -2.14,-2.15 -3.03,-0.82 h -4.05 m -8.12,0 h -8.1 m -8.13,0 h -8.1 m -8.13,0 h -4.05 l -3.03,-0.82 -2.16,-2.15 -0.8,-3.03 v -3.84 m 0,-7.67 v -7.68 m 0,-7.67 v -3.83"
     stroke="#5e5e5e"
     stroke-width="2"
     fill="none"
     id="path50" />
  <path
     d="m 669.5,160 h -2 v -1.03 h 2 z"
     fill="#5e5e5e"
     id="path52" />
  <path
     d="m 618,102.18 -10.18,-17.22 -10.2,17.22 M 404,361.5 h 3.97 m 7.93,0 h 7.94 m 7.93,0 h 7.94 m 7.93,0 h 7.94 m 7.94,0 h 7.93 m 7.94,0 h 7.94 m 7.94,0 h 7.93 m 7.94,0 h 7.94 m 7.93,0 h 7.95 m 7.93,0 h 7.94 m 7.93,0 h 7.93 m 7.94,0 h 7.93 m 7.94,0 h 7.92 m 7.94,0 h 7.93 m 7.92,0 h 7.94 m 7.93,0 h 7.93 m 7.93,0 h 7.93 m 7.93,0 h 7.93 m 7.94,0 h 7.93 m 7.94,0 h 3.96 l 3.03,-0.82 2.15,-2.15 0.83,-3.03 v -3.95 m 0,-7.9 v -7.9 m 0,-7.92 v -7.9 m 0,-7.9 v -7.92 m 0,-7.9 v -7.9 m 0,-7.9 v -7.91 m 0,-7.92 v -7.9 m 0,-7.9 v -3.96"
     stroke="#5e5e5e"
     stroke-width="2"
     fill="none"
     id="path54" />
  <path
     d="M 404.03,362.5 H 403 v -2 h 1.03 z"
     fill="#5e5e5e"
     id="path56" />
  <path
     d="M 721.67,262.18 711.5,244.96 701.32,262.18"
     stroke="#5e5e5e"
     stroke-width="2"
     fill="none"
     id="path58" />
</svg>
