<?xml version="1.0" encoding="UTF-8" standalone="no"?>
<svg xmlns="http://www.w3.org/2000/svg" xmlns:xlink="http://www.w3.org/1999/xlink" contentScriptType="application/ecmascript" contentStyleType="text/css" height="386px" preserveAspectRatio="none" style="width:508px;height:386px;background:#FFFFFF;" version="1.1" viewBox="0 0 508 386" width="508px" zoomAndPan="magnify"><defs><filter height="300%" id="f17zcj8ozb1sol" width="300%" x="-1" y="-1"><feGaussianBlur result="blurOut" stdDeviation="2.0"/><feColorMatrix in="blurOut" result="blurOut2" type="matrix" values="0 0 0 0 0 0 0 0 0 0 0 0 0 0 0 0 0 0 .4 0"/><feOffset dx="4.0" dy="4.0" in="blurOut2" result="blurOut3"/><feBlend in="SourceGraphic" in2="blurOut3" mode="normal"/></filter></defs><g><rect fill="#FFFFFF" filter="url(#f17zcj8ozb1sol)" height="272.5234" style="stroke:#A80036;stroke-width:1.0;" width="10" x="33.5" y="98.2969"/><rect fill="#FFFFFF" filter="url(#f17zcj8ozb1sol)" height="152.9922" style="stroke:#A80036;stroke-width:1.0;" width="10" x="196.5" y="119.4297"/><rect fill="#FFFFFF" filter="url(#f17zcj8ozb1sol)" height="29.1328" style="stroke:#A80036;stroke-width:1.0;" width="10" x="350.5" y="148.5625"/><rect fill="#FFFFFF" filter="url(#f17zcj8ozb1sol)" height="29.1328" style="stroke:#A80036;stroke-width:1.0;" width="10" x="435.5" y="325.6875"/><rect fill="#FFFFFF" filter="url(#f17zcj8ozb1sol)" height="75.3984" style="stroke:#000000;stroke-width:2.0;" width="484.5" x="10" y="287.4219"/><line style="stroke:#A80036;stroke-width:1.0;stroke-dasharray:5.0,5.0;" x1="38" x2="38" y1="88.2969" y2="379.8203"/><line style="stroke:#A80036;stroke-width:1.0;stroke-dasharray:5.0,5.0;" x1="201.5" x2="201.5" y1="88.2969" y2="379.8203"/><line style="stroke:#A80036;stroke-width:1.0;stroke-dasharray:5.0,5.0;" x1="355.5" x2="355.5" y1="88.2969" y2="379.8203"/><line style="stroke:#A80036;stroke-width:1.0;stroke-dasharray:5.0,5.0;" x1="440.5" x2="440.5" y1="228.4922" y2="379.8203"/><text fill="#000000" font-family="sans-serif" font-size="14" lengthAdjust="spacing" textLength="31" x="20" y="84.9951">User</text><ellipse cx="38.5" cy="15" fill="#FEFECE" filter="url(#f17zcj8ozb1sol)" rx="8" ry="8" style="stroke:#A80036;stroke-width:2.0;"/><path d="M38.5,23 L38.5,50 M25.5,31 L51.5,31 M38.5,50 L25.5,65 M38.5,50 L51.5,65 " fill="none" filter="url(#f17zcj8ozb1sol)" style="stroke:#A80036;stroke-width:2.0;"/><text fill="#000000" font-family="sans-serif" font-size="14" lengthAdjust="spacing" textLength="90" x="153.5" y="68.6982">Probabilistic</text><text fill="#000000" font-family="sans-serif" font-size="14" lengthAdjust="spacing" textLength="45" x="176" y="84.9951">Solver</text><ellipse cx="201.5" cy="39.7031" fill="#FEFECE" filter="url(#f17zcj8ozb1sol)" rx="12" ry="12" style="stroke:#A80036;stroke-width:2.0;"/><polygon fill="#A80036" points="197.5,27.7031,203.5,22.7031,201.5,27.7031,203.5,32.7031,197.5,27.7031" style="stroke:#A80036;stroke-width:1.0;"/><text fill="#000000" font-family="sans-serif" font-size="14" lengthAdjust="spacing" textLength="56" x="324.5" y="68.6982">Internal</text><text fill="#000000" font-family="sans-serif" font-size="14" lengthAdjust="spacing" textLength="45" x="330" y="84.9951">Solver</text><ellipse cx="355.5" cy="39.7031" fill="#FEFECE" filter="url(#f17zcj8ozb1sol)" rx="12" ry="12" style="stroke:#A80036;stroke-width:2.0;"/><polygon fill="#A80036" points="351.5,27.7031,357.5,22.7031,355.5,27.7031,357.5,32.7031,351.5,27.7031" style="stroke:#A80036;stroke-width:1.0;"/><rect fill="#FFFFFF" filter="url(#f17zcj8ozb1sol)" height="272.5234" style="stroke:#A80036;stroke-width:1.0;" width="10" x="33.5" y="98.2969"/><rect fill="#FFFFFF" filter="url(#f17zcj8ozb1sol)" height="152.9922" style="stroke:#A80036;stroke-width:1.0;" width="10" x="196.5" y="119.4297"/><rect fill="#FFFFFF" filter="url(#f17zcj8ozb1sol)" height="29.1328" style="stroke:#A80036;stroke-width:1.0;" width="10" x="350.5" y="148.5625"/><rect fill="#FFFFFF" filter="url(#f17zcj8ozb1sol)" height="29.1328" style="stroke:#A80036;stroke-width:1.0;" width="10" x="435.5" y="325.6875"/><polygon fill="#A80036" points="184.5,115.4297,194.5,119.4297,184.5,123.4297,188.5,119.4297" style="stroke:#A80036;stroke-width:1.0;"/><line style="stroke:#A80036;stroke-width:1.0;" x1="43.5" x2="190.5" y1="119.4297" y2="119.4297"/><text fill="#000000" font-family="sans-serif" font-size="13" lengthAdjust="spacing" textLength="73" x="50.5" y="114.3638">solve(Goal)</text><polygon fill="#A80036" points="338.5,144.5625,348.5,148.5625,338.5,152.5625,342.5,148.5625" style="stroke:#A80036;stroke-width:1.0;"/><line style="stroke:#A80036;stroke-width:1.0;" x1="206.5" x2="344.5" y1="148.5625" y2="148.5625"/><text fill="#000000" font-family="sans-serif" font-size="13" lengthAdjust="spacing" textLength="125" x="213.5" y="143.4966">prob_solve(Goal, P)</text><polygon fill="#A80036" points="217.5,173.6953,207.5,177.6953,217.5,181.6953,213.5,177.6953" style="stroke:#A80036;stroke-width:1.0;"/><line style="stroke:#A80036;stroke-width:1.0;stroke-dasharray:2.0,2.0;" x1="211.5" x2="354.5" y1="177.6953" y2="177.6953"/><text fill="#000000" font-family="sans-serif" font-size="13" font-style="italic" lengthAdjust="spacing" textLength="100" x="223.5" y="172.6294">list of solutions</text><polygon fill="#A80036" points="384.5,202.8281,394.5,206.8281,384.5,210.8281,388.5,206.8281" style="stroke:#A80036;stroke-width:1.0;"/><line style="stroke:#A80036;stroke-width:1.0;" x1="206.5" x2="390.5" y1="206.8281" y2="206.8281"/><text fill="#000000" font-family="sans-serif" font-size="13" font-style="italic" lengthAdjust="spacing" textLength="41" x="213.5" y="201.7622">create</text><rect fill="#FEFECE" filter="url(#f17zcj8ozb1sol)" height="46.5938" style="stroke:#A80036;stroke-width:1.5;" width="80" x="400.5" y="185.6953"/><rect fill="#FEFECE" filter="url(#f17zcj8ozb1sol)" height="46.5938" style="stroke:#A80036;stroke-width:1.5;" width="80" x="396.5" y="189.6953"/><text fill="#000000" font-family="sans-serif" font-size="14" lengthAdjust="spacing" textLength="66" x="403.5" y="209.6904">Solutions</text><text fill="#000000" font-family="sans-serif" font-size="14" lengthAdjust="spacing" textLength="53" x="410" y="225.9873">Stream</text><polygon fill="#A80036" points="54.5,268.4219,44.5,272.4219,54.5,276.4219,50.5,272.4219" style="stroke:#A80036;stroke-width:1.0;"/><line style="stroke:#A80036;stroke-width:1.0;stroke-dasharray:2.0,2.0;" x1="48.5" x2="200.5" y1="272.4219" y2="272.4219"/><text fill="#000000" font-family="sans-serif" font-size="13" font-style="italic" lengthAdjust="spacing" textLength="129" x="60.5" y="267.356">reference to stream</text><path d="M10,287.4219 L88,287.4219 L88,294.4219 L78,304.4219 L10,304.4219 L10,287.4219 " fill="#EEEEEE" style="stroke:#000000;stroke-width:1.0;"/><rect fill="none" height="75.3984" style="stroke:#000000;stroke-width:2.0;" width="484.5" x="10" y="287.4219"/><text fill="#000000" font-family="sans-serif" font-size="13" font-weight="bold" lengthAdjust="spacing" textLength="33" x="25" y="300.4888">loop</text><text fill="#000000" font-family="sans-serif" font-size="11" font-weight="bold" lengthAdjust="spacing" textLength="5" x="103" y="299.6323">[</text><text fill="#000000" font-family="sans-serif" font-size="11" font-style="italic" font-weight="bold" lengthAdjust="spacing" textLength="124" x="108" y="299.6323">stream has solution</text><text fill="#000000" font-family="sans-serif" font-size="11" font-weight="bold" lengthAdjust="spacing" textLength="5" x="232" y="299.6323">]</text><polygon fill="#A80036" points="423.5,321.6875,433.5,325.6875,423.5,329.6875,427.5,325.6875" style="stroke:#A80036;stroke-width:1.0;"/><line style="stroke:#A80036;stroke-width:1.0;" x1="43.5" x2="429.5" y1="325.6875" y2="325.6875"/><text fill="#000000" font-family="sans-serif" font-size="13" lengthAdjust="spacing" textLength="39" x="50.5" y="320.6216">next()</text><polygon fill="#A80036" points="54.5,350.8203,44.5,354.8203,54.5,358.8203,50.5,354.8203" style="stroke:#A80036;stroke-width:1.0;"/><line style="stroke:#A80036;stroke-width:1.0;" x1="48.5" x2="439.5" y1="354.8203" y2="354.8203"/><text fill="#000000" font-family="sans-serif" font-size="13" font-style="italic" lengthAdjust="spacing" textLength="57" x="60.5" y="349.7544">Solution:</text><text fill="#000000" font-family="sans-serif" font-size="13" lengthAdjust="spacing" textLength="55" x="121.5" y="349.7544">Goal = g</text><text fill="#000000" font-family="sans-serif" font-size="13" font-style="italic" lengthAdjust="spacing" textLength="102" x="180.5" y="349.7544">with probability</text><text fill="#000000" font-family="sans-serif" font-size="13" lengthAdjust="spacing" textLength="34" x="286.5" y="349.7544">P = p</text><!--MD5=[02dd2210b44e6e1d6d673ff4e9de0a8f]
@startuml
hide footbox

actor User
control "Probabilistic\nSolver" as Solver
control "Internal\nSolver" as Prolog
collections "Solutions\nStream" as Stream

activate User
User -> Solver: solve(Goal)
activate Solver

Solver -> Prolog: prob_solve(Goal, P)
activate Prolog
Prolog - -> Solver: //list of solutions//
deactivate Prolog


create Stream
Solver -> Stream: //create//

Solver - -> User: //reference to stream//
deactivate Solver

loop //stream has solution//
User -> Stream: next()
activate Stream
Stream -> User: //Solution:// Goal = g //with probability// P = p
deactivate Stream
end
@enduml

PlantUML version 1.2021.15(Tue Nov 30 16:45:34 UTC 2021)
(GPL source distribution)
Java Runtime: Java(TM) SE Runtime Environment
JVM: Java HotSpot(TM) 64-Bit Server VM
Default Encoding: UTF-8
Language: en
Country: US
--></g></svg>