<svg xmlns="http://www.w3.org/2000/svg" xmlns:xlink="http://www.w3.org/1999/xlink" xmlns:lucid="lucid" width="350" height="228"><g transform="translate(-510 -230)" lucid:page-tab-id="y3ETh8iDGW2x"><path d="M520 240h340v51.4H520z" fill="#fff" fill-opacity="0"/><use xlink:href="#a" transform="matrix(1,0,0,1,525,245) translate(0 16.501736111111107)"/><use xlink:href="#b" transform="matrix(1,0,0,1,525,245) translate(85.3472222222222 16.501736111111107)"/><use xlink:href="#c" transform="matrix(1,0,0,1,525,245) translate(234.70486111111103 16.501736111111107)"/><use xlink:href="#d" transform="matrix(1,0,0,1,525,245) translate(266.71006944444434 16.501736111111107)"/><use xlink:href="#e" transform="matrix(1,0,0,1,525,245) translate(0 37.19618055555554)"/><use xlink:href="#f" transform="matrix(1,0,0,1,525,245) translate(85.3472222222222 37.19618055555554)"/><use xlink:href="#c" transform="matrix(1,0,0,1,525,245) translate(149.35763888888886 37.19618055555554)"/><use xlink:href="#g" transform="matrix(1,0,0,1,525,245) translate(181.36284722222217 37.19618055555554)"/><path d="M520 400h340v51.4H520z" fill="#fff" fill-opacity="0"/><use xlink:href="#h" transform="matrix(1,0,0,1,525,405) translate(0 16.501736111111107)"/><use xlink:href="#i" transform="matrix(1,0,0,1,525,405) translate(138.68923611111106 16.501736111111107)"/><use xlink:href="#c" transform="matrix(1,0,0,1,525,405) translate(170.6944444444444 16.501736111111107)"/><use xlink:href="#d" transform="matrix(1,0,0,1,525,405) translate(202.69965277777771 16.501736111111107)"/><use xlink:href="#j" transform="matrix(1,0,0,1,525,405) translate(0 37.19618055555554)"/><use xlink:href="#c" transform="matrix(1,0,0,1,525,405) translate(85.3472222222222 37.19618055555554)"/><use xlink:href="#g" transform="matrix(1,0,0,1,525,405) translate(117.35243055555553 37.19618055555554)"/><path d="M693 394.55h-2V371.2h2zm0-87.35h-2v-14.8h2zM689 394.55h-2V371.2h2zm0-87.35h-2v-14.8h2zM693 292.4h-2v-1h2zM689 292.4h-2v-1h2z" fill="#5e5e5e"/><path d="M701.04 381.33L690 400l-11.04-18.67 1.72-1.02 9.32 15.77 9.32-15.76z" fill="#5e5e5e"/><g><use xlink:href="#k" transform="matrix(1,0,0,1,637.8024691358024,307.2) translate(34.474135802469135 14.222222222222223)"/><use xlink:href="#l" transform="matrix(1,0,0,1,637.8024691358024,307.2) translate(15.758086419753091 35.55555555555556)"/><use xlink:href="#m" transform="matrix(1,0,0,1,637.8024691358024,307.2) translate(0.005000000000002558 56.88888888888889)"/></g><defs><path fill="#333" d="M1092-551c0 322-136 571-430 571-138 0-245-53-322-159h-12c24 220 7 402 12 631H158v-1590h147l27 148h8c73-112 181-168 322-168 294 0 430 246 430 567zM629-967c-241 0-288 156-289 416 0 151 24 259 70 323s120 97 221 97c181 0 272-141 272-422 0-276-91-414-274-414" id="n"/><path fill="#333" d="M442-897c93-139 173-221 377-221 79 0 159 15 240 45l-49 166c-82-30-157-45-224-45-221 0-340 134-340 360V0H264v-1098h148l22 201h8" id="o"/><path fill="#333" d="M1112-551c0 331-186 571-502 571-301 0-495-251-495-571 0-330 184-567 501-567 302 0 496 249 496 567zM614-131c207 0 310-140 310-420 0-277-104-416-312-416-206 0-309 139-309 416 0 280 104 420 311 420" id="p"/><path fill="#333" d="M1092-551c0 322-136 571-430 571-138 0-245-53-322-159h-12L291 0H158v-1556h182c-2 221 6 379-8 602h8c71-109 179-164 322-164 294 0 430 246 430 567zM629-967c-241 0-289 146-289 416 0 151 24 259 70 323s120 97 221 97c181 0 272-141 272-422 0-276-91-414-274-414" id="q"/><path fill="#333" d="M739-1462h193c-299 251-449 548-449 893 0 347 149 645 447 893H739C443 89 295-208 295-567c0-355 148-653 444-895" id="r"/><path fill="#333" d="M1059 0H217v-1462h842v164H403v452h617v162H403v520h656V0" id="s"/><path fill="#333" d="M770-262l16 24C748-89 683 87 592 289H440c51-215 88-399 111-551h219" id="t"/><g id="a"><use transform="matrix(0.008680555555555554,0,0,0.008680555555555554,0,0)" xlink:href="#n"/><use transform="matrix(0.008680555555555554,0,0,0.008680555555555554,10.668402777777777,0)" xlink:href="#o"/><use transform="matrix(0.008680555555555554,0,0,0.008680555555555554,21.336805555555554,0)" xlink:href="#p"/><use transform="matrix(0.008680555555555554,0,0,0.008680555555555554,32.00520833333333,0)" xlink:href="#q"/><use transform="matrix(0.008680555555555554,0,0,0.008680555555555554,42.67361111111111,0)" xlink:href="#r"/><use transform="matrix(0.008680555555555554,0,0,0.008680555555555554,53.342013888888886,0)" xlink:href="#s"/><use transform="matrix(0.008680555555555554,0,0,0.008680555555555554,64.01041666666666,0)" xlink:href="#t"/></g><path fill="#333" d="M866-1417c-164 2-207 56-211 215v104h389v137H655V0H473v-961H156v-110l317-33c-17-319 78-463 389-463 86 0 170 12 252 35l-41 143c-69-19-138-28-207-28" id="u"/><path fill="#333" d="M631-1118c283 0 470 204 465 491v113H322c5 250 120 375 344 375 130 0 253-25 370-76v160C925-5 804 20 672 20c-329 0-539-224-539-561 0-331 182-577 498-577zM326-662h573c0-203-91-305-272-305-183 0-284 102-301 305" id="v"/><path fill="#333" d="M977 0v-707c0-97-9-165-27-203s-47-57-88-57c-58 0-100 28-126 83s-40 148-40 278V0H535v-707c0-173-42-260-125-260-56 0-96 26-120 79s-36 160-36 319V0H92v-1098h127l27 148h10c45-112 112-168 201-168 109 0 180 61 213 182h6c51-121 124-182 219-182 85 0 147 30 186 92s58 165 58 309V0H977" id="w"/><path fill="#333" d="M596-1118c288 2 430 92 430 366V0H895l-37-152h-8C752-34 680 17 483 20 272 23 135-98 135-307c0-221 170-337 510-348l203-7c15-197-55-305-244-305-98 0-207 27-328 82l-63-137c131-64 258-96 383-96zm-72 991c194 0 325-116 322-311v-99c-251 15-522-6-522 232 0 119 67 178 200 178" id="x"/><path fill="#333" d="M532-1413l-268-21v-122h451v1413l352 20V0H188v-123l344-20v-1270" id="y"/><path fill="#333" d="M887 0v-707c0-173-79-260-238-260-205 0-307 133-307 398V0H160v-1098h147l27 148h10c69-112 181-168 336-168 259 0 389 134 389 401V0H887" id="z"/><path fill="#333" d="M489 324H299C596 77 745-221 745-569c0-345-149-643-448-893h192c297 241 445 539 445 895 0 360-148 657-445 891" id="A"/><g id="b"><use transform="matrix(0.008680555555555554,0,0,0.008680555555555554,0,0)" xlink:href="#u"/><use transform="matrix(0.008680555555555554,0,0,0.008680555555555554,10.668402777777777,0)" xlink:href="#v"/><use transform="matrix(0.008680555555555554,0,0,0.008680555555555554,21.336805555555554,0)" xlink:href="#w"/><use transform="matrix(0.008680555555555554,0,0,0.008680555555555554,32.00520833333333,0)" xlink:href="#x"/><use transform="matrix(0.008680555555555554,0,0,0.008680555555555554,42.67361111111111,0)" xlink:href="#y"/><use transform="matrix(0.008680555555555554,0,0,0.008680555555555554,53.342013888888886,0)" xlink:href="#v"/><use transform="matrix(0.008680555555555554,0,0,0.008680555555555554,64.01041666666666,0)" xlink:href="#r"/><use transform="matrix(0.008680555555555554,0,0,0.008680555555555554,74.67881944444443,0)" xlink:href="#x"/><use transform="matrix(0.008680555555555554,0,0,0.008680555555555554,85.3472222222222,0)" xlink:href="#z"/><use transform="matrix(0.008680555555555554,0,0,0.008680555555555554,96.01562499999997,0)" xlink:href="#z"/><use transform="matrix(0.008680555555555554,0,0,0.008680555555555554,106.68402777777774,0)" xlink:href="#x"/><use transform="matrix(0.008680555555555554,0,0,0.008680555555555554,117.35243055555551,0)" xlink:href="#A"/><use transform="matrix(0.008680555555555554,0,0,0.008680555555555554,128.0208333333333,0)" xlink:href="#A"/></g><path fill="#333" d="M614-1126c85 0 127 46 127 139s-42 139-127 139-127-46-127-139 42-139 127-139zm0 876c85 0 127 46 127 139S699 29 614 29 487-18 487-111s42-139 127-139" id="B"/><path fill="#333" d="M285-465v-168h659v168H285" id="C"/><g id="c"><use transform="matrix(0.008680555555555554,0,0,0.008680555555555554,0,0)" xlink:href="#B"/><use transform="matrix(0.008680555555555554,0,0,0.008680555555555554,10.668402777777777,0)" xlink:href="#C"/></g><path fill="#333" d="M1020-150v138C933 9 849 20 768 20 527 20 406-95 406-324v-637H139v-94l267-49 77-287h105v293h438v137H588v637c0 130 64 195 192 195 62 0 142-7 240-21" id="D"/><path fill="#333" d="M578-131c239 0 309-137 309-397v-570h182V0H922l-27-147h-10C815-36 704 20 551 20c-261 0-391-134-391-401v-717h182v707c0 173 79 260 236 260" id="E"/><path fill="#333" d="M614-301c101 0 152 55 152 166S715 31 614 31 463-24 463-135s50-166 151-166" id="F"/><g id="d"><use transform="matrix(0.008680555555555554,0,0,0.008680555555555554,0,0)" xlink:href="#D"/><use transform="matrix(0.008680555555555554,0,0,0.008680555555555554,10.668402777777777,0)" xlink:href="#o"/><use transform="matrix(0.008680555555555554,0,0,0.008680555555555554,21.336805555555554,0)" xlink:href="#E"/><use transform="matrix(0.008680555555555554,0,0,0.008680555555555554,32.00520833333333,0)" xlink:href="#v"/><use transform="matrix(0.008680555555555554,0,0,0.008680555555555554,42.67361111111111,0)" xlink:href="#F"/></g><g id="e"><use transform="matrix(0.008680555555555554,0,0,0.008680555555555554,0,0)" xlink:href="#n"/><use transform="matrix(0.008680555555555554,0,0,0.008680555555555554,10.668402777777777,0)" xlink:href="#o"/><use transform="matrix(0.008680555555555554,0,0,0.008680555555555554,21.336805555555554,0)" xlink:href="#p"/><use transform="matrix(0.008680555555555554,0,0,0.008680555555555554,32.00520833333333,0)" xlink:href="#q"/><use transform="matrix(0.008680555555555554,0,0,0.008680555555555554,42.67361111111111,0)" xlink:href="#r"/><use transform="matrix(0.008680555555555554,0,0,0.008680555555555554,53.342013888888886,0)" xlink:href="#s"/><use transform="matrix(0.008680555555555554,0,0,0.008680555555555554,64.01041666666666,0)" xlink:href="#t"/></g><path fill="#333" d="M739-1436c0 71-43 115-106 115-71 0-107-38-107-115 0-76 36-114 107-114s106 38 106 114zM541-954l-269-21v-123h451v955l352 20V0H197v-123l344-20v-811" id="G"/><path fill="#333" d="M383-553l135-152 395-393h222L641-623 1163 0H950L524-504l-129 82V0H215v-1556h180c-3 337 9 689-16 1003h4" id="H"/><g id="f"><use transform="matrix(0.008680555555555554,0,0,0.008680555555555554,0,0)" xlink:href="#w"/><use transform="matrix(0.008680555555555554,0,0,0.008680555555555554,10.668402777777777,0)" xlink:href="#G"/><use transform="matrix(0.008680555555555554,0,0,0.008680555555555554,21.336805555555554,0)" xlink:href="#H"/><use transform="matrix(0.008680555555555554,0,0,0.008680555555555554,32.00520833333333,0)" xlink:href="#v"/><use transform="matrix(0.008680555555555554,0,0,0.008680555555555554,42.67361111111111,0)" xlink:href="#A"/></g><g id="g"><use transform="matrix(0.008680555555555554,0,0,0.008680555555555554,0,0)" xlink:href="#D"/><use transform="matrix(0.008680555555555554,0,0,0.008680555555555554,10.668402777777777,0)" xlink:href="#o"/><use transform="matrix(0.008680555555555554,0,0,0.008680555555555554,21.336805555555554,0)" xlink:href="#E"/><use transform="matrix(0.008680555555555554,0,0,0.008680555555555554,32.00520833333333,0)" xlink:href="#v"/><use transform="matrix(0.008680555555555554,0,0,0.008680555555555554,42.67361111111111,0)" xlink:href="#F"/></g><g id="h"><use transform="matrix(0.008680555555555554,0,0,0.008680555555555554,0,0)" xlink:href="#u"/><use transform="matrix(0.008680555555555554,0,0,0.008680555555555554,10.668402777777777,0)" xlink:href="#v"/><use transform="matrix(0.008680555555555554,0,0,0.008680555555555554,21.336805555555554,0)" xlink:href="#w"/><use transform="matrix(0.008680555555555554,0,0,0.008680555555555554,32.00520833333333,0)" xlink:href="#x"/><use transform="matrix(0.008680555555555554,0,0,0.008680555555555554,42.67361111111111,0)" xlink:href="#y"/><use transform="matrix(0.008680555555555554,0,0,0.008680555555555554,53.342013888888886,0)" xlink:href="#v"/><use transform="matrix(0.008680555555555554,0,0,0.008680555555555554,64.01041666666666,0)" xlink:href="#r"/><use transform="matrix(0.008680555555555554,0,0,0.008680555555555554,74.67881944444443,0)" xlink:href="#x"/><use transform="matrix(0.008680555555555554,0,0,0.008680555555555554,85.3472222222222,0)" xlink:href="#z"/><use transform="matrix(0.008680555555555554,0,0,0.008680555555555554,96.01562499999997,0)" xlink:href="#z"/><use transform="matrix(0.008680555555555554,0,0,0.008680555555555554,106.68402777777774,0)" xlink:href="#x"/><use transform="matrix(0.008680555555555554,0,0,0.008680555555555554,117.35243055555551,0)" xlink:href="#t"/></g><g id="i"><use transform="matrix(0.008680555555555554,0,0,0.008680555555555554,0,0)" xlink:href="#s"/><use transform="matrix(0.008680555555555554,0,0,0.008680555555555554,10.668402777777777,0)" xlink:href="#A"/></g><g id="j"><use transform="matrix(0.008680555555555554,0,0,0.008680555555555554,0,0)" xlink:href="#w"/><use transform="matrix(0.008680555555555554,0,0,0.008680555555555554,10.668402777777777,0)" xlink:href="#G"/><use transform="matrix(0.008680555555555554,0,0,0.008680555555555554,21.336805555555554,0)" xlink:href="#H"/><use transform="matrix(0.008680555555555554,0,0,0.008680555555555554,32.00520833333333,0)" xlink:href="#v"/><use transform="matrix(0.008680555555555554,0,0,0.008680555555555554,42.67361111111111,0)" xlink:href="#r"/><use transform="matrix(0.008680555555555554,0,0,0.008680555555555554,53.342013888888886,0)" xlink:href="#s"/><use transform="matrix(0.008680555555555554,0,0,0.008680555555555554,64.01041666666666,0)" xlink:href="#A"/></g><path fill="#333" d="M231 0h-52l-39-155L100 0H48L-1-190h46L77-45c9-52 24-97 36-145h53l37 145 32-145h46" id="I"/><path fill="#333" d="M25-224v-37h50v37H25zM25 0v-190h50V0H25" id="J"/><path fill="#333" d="M115-3C79 11 28 4 28-45v-112H4v-33h27l15-45h31v45h36v33H77v99c-1 23 16 31 38 25v30" id="K"/><path fill="#333" d="M114-157C55-157 80-60 75 0H25v-261h50l-1 109c12-26 28-41 61-42 86-1 58 113 63 194h-50c-7-57 23-157-34-157" id="L"/><g id="k"><use transform="matrix(0.04938271604938272,0,0,0.04938271604938272,0,0)" xlink:href="#I"/><use transform="matrix(0.04938271604938272,0,0,0.04938271604938272,13.827160493827162,0)" xlink:href="#J"/><use transform="matrix(0.04938271604938272,0,0,0.04938271604938272,18.765432098765434,0)" xlink:href="#K"/><use transform="matrix(0.04938271604938272,0,0,0.04938271604938272,24.641975308641978,0)" xlink:href="#L"/></g><path fill="#333" d="M135-194c87-1 58 113 63 194h-50c-7-57 23-157-34-157-59 0-34 97-39 157H25l-1-190h47c2 12-1 28 3 38 12-26 28-41 61-42" id="M"/><path fill="#333" d="M88-194c31-1 46 15 58 34l-1-101h50l1 261h-48c-2-10 0-23-3-31C134-8 116 4 84 4 32 4 16-41 15-95c0-56 19-97 73-99zm17 164c33 0 40-30 41-66 1-37-9-64-41-64s-38 30-39 65c0 43 13 65 39 65" id="N"/><path fill="#333" d="M185-48c-13 30-37 53-82 52C43 2 14-33 14-96s30-98 90-98c62 0 83 45 84 108H66c0 31 8 55 39 56 18 0 30-7 34-22zm-45-69c5-46-57-63-70-21-2 6-4 13-4 21h74" id="O"/><path fill="#333" d="M144 0l-44-69L55 0H2l70-98-66-92h53l41 62 40-62h54l-67 91 71 99h-54" id="P"/><path fill="#333" d="M195-6C206 82 75 100 31 46c-4-6-6-13-8-21l49-6c3 16 16 24 34 25 40 0 42-37 40-79-11 22-30 35-61 35-53 0-70-43-70-97 0-56 18-96 73-97 30 0 46 14 59 34l2-30h47zm-90-29c32 0 41-27 41-63 0-35-9-62-40-62-32 0-39 29-40 63 0 36 9 62 39 62" id="Q"/><g id="l"><use transform="matrix(0.04938271604938272,0,0,0.04938271604938272,0,0)" xlink:href="#J"/><use transform="matrix(0.04938271604938272,0,0,0.04938271604938272,4.938271604938272,0)" xlink:href="#M"/><use transform="matrix(0.04938271604938272,0,0,0.04938271604938272,15.753086419753087,0)" xlink:href="#N"/><use transform="matrix(0.04938271604938272,0,0,0.04938271604938272,26.567901234567902,0)" xlink:href="#O"/><use transform="matrix(0.04938271604938272,0,0,0.04938271604938272,36.44444444444444,0)" xlink:href="#P"/><use transform="matrix(0.04938271604938272,0,0,0.04938271604938272,46.32098765432099,0)" xlink:href="#J"/><use transform="matrix(0.04938271604938272,0,0,0.04938271604938272,51.25925925925927,0)" xlink:href="#M"/><use transform="matrix(0.04938271604938272,0,0,0.04938271604938272,62.074074074074076,0)" xlink:href="#Q"/></g><path fill="#333" d="M110-194c64 0 96 36 96 99 0 64-35 99-97 99-61 0-95-36-95-99 0-62 34-99 96-99zm-1 164c35 0 45-28 45-65 0-40-10-65-43-65-34 0-45 26-45 65 0 36 10 65 43 65" id="R"/><path fill="#333" d="M135-194c53 0 70 44 70 98 0 56-19 98-73 100-31 1-45-17-59-34 3 33 2 69 2 105H25l-1-265h48c2 10 0 23 3 31 11-24 29-35 60-35zM114-30c33 0 39-31 40-66 0-38-9-64-40-64-56 0-55 130 0 130" id="S"/><path fill="#333" d="M220-157c-53 9-28 100-34 157h-49v-107c1-27-5-49-29-50C55-147 81-57 75 0H25l-1-190h47c2 12-1 28 3 38 10-53 101-56 108 0 13-22 24-43 59-42 82 1 51 116 57 194h-49v-107c-1-25-5-48-29-50" id="T"/><path fill="#333" d="M12 0v-35l95-120H19v-35h142v35L67-36h103V0H12" id="U"/><path fill="#333" d="M133-34C117-15 103 5 69 4 32 3 11-16 11-54c-1-60 55-63 116-61 1-26-3-47-28-47-18 1-26 9-28 27l-52-2c7-38 36-58 82-57s74 22 75 68l1 82c-1 14 12 18 25 15v27c-30 8-71 5-69-32zm-48 3c29 0 43-24 42-57-32 0-66-3-65 30 0 17 8 27 23 27" id="V"/><g id="m"><use transform="matrix(0.04938271604938272,0,0,0.04938271604938272,0,0)" xlink:href="#R"/><use transform="matrix(0.04938271604938272,0,0,0.04938271604938272,10.814814814814815,0)" xlink:href="#S"/><use transform="matrix(0.04938271604938272,0,0,0.04938271604938272,21.62962962962963,0)" xlink:href="#K"/><use transform="matrix(0.04938271604938272,0,0,0.04938271604938272,27.506172839506174,0)" xlink:href="#J"/><use transform="matrix(0.04938271604938272,0,0,0.04938271604938272,32.44444444444444,0)" xlink:href="#T"/><use transform="matrix(0.04938271604938272,0,0,0.04938271604938272,48.24691358024691,0)" xlink:href="#J"/><use transform="matrix(0.04938271604938272,0,0,0.04938271604938272,53.185185185185176,0)" xlink:href="#U"/><use transform="matrix(0.04938271604938272,0,0,0.04938271604938272,62.074074074074076,0)" xlink:href="#V"/><use transform="matrix(0.04938271604938272,0,0,0.04938271604938272,71.95061728395062,0)" xlink:href="#K"/><use transform="matrix(0.04938271604938272,0,0,0.04938271604938272,77.82716049382717,0)" xlink:href="#J"/><use transform="matrix(0.04938271604938272,0,0,0.04938271604938272,82.76543209876544,0)" xlink:href="#R"/><use transform="matrix(0.04938271604938272,0,0,0.04938271604938272,93.58024691358025,0)" xlink:href="#M"/></g></defs></g></svg>